<?xml version="1.0" encoding="UTF-8" standalone="no"?>
<svg
   xmlns:dc="http://purl.org/dc/elements/1.1/"
   xmlns:cc="http://creativecommons.org/ns#"
   xmlns:rdf="http://www.w3.org/1999/02/22-rdf-syntax-ns#"
   xmlns:svg="http://www.w3.org/2000/svg"
   xmlns="http://www.w3.org/2000/svg"
   xmlns:xlink="http://www.w3.org/1999/xlink"
   xmlns:sodipodi="http://sodipodi.sourceforge.net/DTD/sodipodi-0.dtd"
   xmlns:inkscape="http://www.inkscape.org/namespaces/inkscape"
   id="svg8"
   version="1.1"
   viewBox="0 0 344.22291 177.27084"
   height="670"
   width="1301"
   sodipodi:docname="all1ink.svg"
   inkscape:version="0.92.3 (3ce5693, 2018-03-11)">
  <sodipodi:namedview
     pagecolor="#ffffff"
     bordercolor="#666666"
     borderopacity="1"
     objecttolerance="10"
     gridtolerance="10"
     guidetolerance="10"
     inkscape:pageopacity="0"
     inkscape:pageshadow="2"
     inkscape:window-width="1301"
     inkscape:window-height="744"
     id="namedview7"
     showgrid="false"
     inkscape:zoom="1.543569"
     inkscape:cx="671.14818"
     inkscape:cy="338.86598"
     inkscape:window-x="65"
     inkscape:window-y="24"
     inkscape:window-maximized="1"
     inkscape:current-layer="g1028"
     showguides="true"
     inkscape:guide-bbox="true"
     inkscape:snap-global="false"
     inkscape:lockguides="true" />
  <defs
     id="defs2">
    <linearGradient
       inkscape:collect="always"
       id="linearGradient1001">
      <stop
         style="stop-color:#000000;stop-opacity:1"
         offset="0"
         id="stop997" />
      <stop
         style="stop-color:#000000;stop-opacity:0.00497512"
         offset="1"
         id="stop999" />
    </linearGradient>
    <linearGradient
       id="linearGradient1040"
       inkscape:collect="always">
      <stop
         id="stop1036"
         offset="0"
         style="stop-color:#451b0e;stop-opacity:1" />
      <stop
         id="stop1038"
         offset="1"
         style="stop-color:#471d0f;stop-opacity:0" />
    </linearGradient>
    <linearGradient
       id="linearGradient12643"
       inkscape:collect="always">
      <stop
         id="stop12639"
         offset="0"
         style="stop-color:#803300;stop-opacity:1" />
      <stop
         id="stop12641"
         offset="1"
         style="stop-color:#341009;stop-opacity:0.97989953" />
    </linearGradient>
    <linearGradient
       inkscape:collect="always"
       id="linearGradient12631">
      <stop
         style="stop-color:#ff944d;stop-opacity:1"
         offset="0"
         id="stop12627" />
      <stop
         style="stop-color:#341009;stop-opacity:1"
         offset="1"
         id="stop12629" />
    </linearGradient>
    <filter
       id="filter88"
       inkscape:label="Drop Shadow"
       style="color-interpolation-filters:sRGB;">
      <feFlood
         id="feFlood78"
         result="flood"
         flood-color="rgb(0,0,0)"
         flood-opacity="0.498039" />
      <feComposite
         id="feComposite80"
         result="composite1"
         operator="in"
         in2="SourceGraphic"
         in="flood" />
      <feGaussianBlur
         id="feGaussianBlur82"
         result="blur"
         stdDeviation="3"
         in="composite1" />
      <feOffset
         id="feOffset84"
         result="offset"
         dy="6"
         dx="6" />
      <feComposite
         id="feComposite86"
         result="fbSourceGraphic"
         operator="over"
         in2="offset"
         in="SourceGraphic" />
      <feColorMatrix
         id="feColorMatrix90"
         values="0 0 0 -1 0 0 0 0 -1 0 0 0 0 -1 0 0 0 0 1 0"
         in="fbSourceGraphic"
         result="fbSourceGraphicAlpha" />
      <feFlood
         in="fbSourceGraphic"
         result="flood"
         flood-color="rgb(0,0,0)"
         flood-opacity="0.498039"
         id="feFlood92" />
      <feComposite
         result="composite1"
         operator="in"
         in="flood"
         id="feComposite94"
         in2="fbSourceGraphic" />
      <feGaussianBlur
         result="blur"
         stdDeviation="3"
         in="composite1"
         id="feGaussianBlur96" />
      <feOffset
         result="offset"
         dy="6"
         dx="6"
         id="feOffset98" />
      <feComposite
         result="composite2"
         operator="over"
         in="fbSourceGraphic"
         id="feComposite100"
         in2="offset" />
    </filter>
    <linearGradient
       gradientUnits="userSpaceOnUse"
       y2="55.863918"
       x2="-42.008575"
       y1="55.863918"
       x1="-53.210831"
       id="linearGradient325548"
       xlink:href="#linearGradient325538"
       inkscape:collect="always"
       gradientTransform="matrix(1.5230473,0,0,1.5230473,236.78551,-49.709398)" />
    <linearGradient
       id="linearGradient325538"
       inkscape:collect="always">
      <stop
         id="stop325534"
         offset="0"
         style="stop-color:#b16634;stop-opacity:1;" />
      <stop
         id="stop325536"
         offset="1"
         style="stop-color:#351009;stop-opacity:1" />
    </linearGradient>
    <linearGradient
       gradientUnits="userSpaceOnUse"
       y2="56.331638"
       x2="-41.63393"
       y1="56.465275"
       x1="-30.786446"
       id="linearGradient325540"
       xlink:href="#linearGradient325538"
       inkscape:collect="always"
       gradientTransform="matrix(1.5230473,0,0,1.5230473,236.78551,-49.709398)" />
    <linearGradient
       id="linearGradient870"
       inkscape:collect="always">
      <stop
         id="stop866"
         offset="0"
         style="stop-color:#a05a2c;stop-opacity:1;" />
      <stop
         id="stop868"
         offset="1"
         style="stop-color:#552200;stop-opacity:1" />
    </linearGradient>
    <linearGradient
       gradientUnits="userSpaceOnUse"
       y2="126.5078"
       x2="194.37543"
       y1="118.19442"
       x1="190.27492"
       id="linearGradient864"
       xlink:href="#linearGradient870"
       inkscape:collect="always"
       gradientTransform="translate(-158.44844,-2.0665611)" />
    <linearGradient
       gradientTransform="translate(1.497781,-11.748511)"
       inkscape:collect="always"
       xlink:href="#linearGradient26943"
       id="linearGradient26945"
       x1="178.02519"
       y1="92.637024"
       x2="186.851"
       y2="92.273407"
       gradientUnits="userSpaceOnUse" />
    <linearGradient
       inkscape:collect="always"
       id="linearGradient26943">
      <stop
         style="stop-color:#c8b7b7;stop-opacity:1"
         offset="0"
         id="stop26939" />
      <stop
         style="stop-color:#000000;stop-opacity:1"
         offset="1"
         id="stop26941" />
    </linearGradient>
    <filter
       inkscape:collect="always"
       style="color-interpolation-filters:sRGB"
       id="filter27019"
       x="-0.1780737"
       width="1.3561474"
       y="-0.090489432"
       height="1.1809789">
      <feGaussianBlur
         inkscape:collect="always"
         stdDeviation="0.97716135"
         id="feGaussianBlur27021" />
    </filter>
    <filter
       inkscape:collect="always"
       style="color-interpolation-filters:sRGB"
       id="filter27199"
       x="-0.077908784"
       width="1.1558176"
       y="-0.36485684"
       height="1.7297137">
      <feGaussianBlur
         inkscape:collect="always"
         stdDeviation="0.52265555"
         id="feGaussianBlur27201" />
    </filter>
    <filter
       inkscape:collect="always"
       style="color-interpolation-filters:sRGB"
       id="filter27187"
       x="-0.10876665"
       width="1.2175333"
       y="-0.27574661"
       height="1.5514932">
      <feGaussianBlur
         inkscape:collect="always"
         stdDeviation="0.63996888"
         id="feGaussianBlur27189" />
    </filter>
    <filter
       inkscape:collect="always"
       style="color-interpolation-filters:sRGB"
       id="filter27175"
       x="-0.17738511"
       width="1.3547702"
       y="-0.67337549"
       height="2.346751">
      <feGaussianBlur
         inkscape:collect="always"
         stdDeviation="1.0266808"
         id="feGaussianBlur27177" />
    </filter>
    <linearGradient
       gradientUnits="userSpaceOnUse"
       y2="133.53934"
       x2="157.88109"
       y1="124.32774"
       x1="153.97563"
       id="linearGradient153975"
       xlink:href="#linearGradient153965"
       inkscape:collect="always"
       gradientTransform="translate(1.497781,-11.748511)" />
    <linearGradient
       id="linearGradient153965"
       inkscape:collect="always">
      <stop
         id="stop153961"
         offset="0"
         style="stop-color:#2d0074;stop-opacity:1" />
      <stop
         id="stop153963"
         offset="1"
         style="stop-color:#06000f;stop-opacity:1" />
    </linearGradient>
    <linearGradient
       gradientUnits="userSpaceOnUse"
       y2="123.65937"
       x2="157.42566"
       y1="114.74604"
       x1="159.7381"
       id="linearGradient872"
       xlink:href="#linearGradient870"
       inkscape:collect="always"
       gradientTransform="translate(1.497781,-11.748511)" />
    <linearGradient
       gradientUnits="userSpaceOnUse"
       y2="126.5078"
       x2="194.37543"
       y1="118.19442"
       x1="190.27492"
       id="linearGradient864-6"
       xlink:href="#linearGradient870"
       inkscape:collect="always"
       gradientTransform="translate(1.497781,-11.748511)" />
    <linearGradient
       gradientUnits="userSpaceOnUse"
       y2="116.92193"
       x2="188.62166"
       y1="109.16479"
       x1="185.18259"
       id="linearGradient153967"
       xlink:href="#linearGradient153965"
       inkscape:collect="always"
       gradientTransform="translate(1.497781,-11.748511)" />
    <linearGradient
       gradientTransform="translate(1.497781,-11.748511)"
       inkscape:collect="always"
       xlink:href="#linearGradient27063"
       id="linearGradient27065"
       x1="159.76387"
       y1="91.538589"
       x2="168.39485"
       y2="91.902206"
       gradientUnits="userSpaceOnUse" />
    <linearGradient
       inkscape:collect="always"
       id="linearGradient27063">
      <stop
         style="stop-color:#000000;stop-opacity:1"
         offset="0"
         id="stop27059" />
      <stop
         style="stop-color:#c8b7b7;stop-opacity:1"
         offset="1"
         id="stop27061" />
    </linearGradient>
    <filter
       inkscape:collect="always"
       style="color-interpolation-filters:sRGB"
       id="filter27055"
       x="-0.17661844"
       width="1.3532369"
       y="-0.059309874"
       height="1.1186197">
      <feGaussianBlur
         inkscape:collect="always"
         stdDeviation="0.88461893"
         id="feGaussianBlur27057" />
    </filter>
    <radialGradient
       inkscape:collect="always"
       xlink:href="#linearGradient12631"
       id="radialGradient12633"
       cx="117.69627"
       cy="65.596817"
       fx="117.69627"
       fy="65.596817"
       r="4.237756"
       gradientTransform="matrix(0.66097481,-0.28879536,0.71016751,1.6253821,44.911717,-15.51774)"
       gradientUnits="userSpaceOnUse" />
    <radialGradient
       inkscape:collect="always"
       xlink:href="#linearGradient12643"
       id="radialGradient12637"
       gradientUnits="userSpaceOnUse"
       gradientTransform="matrix(0.9342822,0.45766458,-0.61834389,0.81631335,140.51484,-59.471452)"
       cx="117.69627"
       cy="65.596817"
       fx="117.69627"
       fy="65.596817"
       r="4.237756" />
    <radialGradient
       inkscape:collect="always"
       xlink:href="#linearGradient12631"
       id="radialGradient12649"
       gradientUnits="userSpaceOnUse"
       gradientTransform="matrix(0.84472136,0.04399636,-0.03228074,1.777202,76.161746,-64.588762)"
       cx="117.69627"
       cy="65.596817"
       fx="117.69627"
       fy="65.596817"
       r="4.237756" />
    <radialGradient
       inkscape:collect="always"
       xlink:href="#linearGradient12631"
       id="radialGradient12653"
       gradientUnits="userSpaceOnUse"
       gradientTransform="matrix(-0.74983213,-0.25438495,-0.6949352,1.6597868,310.93641,-22.079236)"
       cx="117.69627"
       cy="65.596817"
       fx="117.69627"
       fy="65.596817"
       r="4.237756" />
    <radialGradient
       inkscape:collect="always"
       xlink:href="#linearGradient12643"
       id="radialGradient12657"
       gradientUnits="userSpaceOnUse"
       gradientTransform="matrix(0.59768098,-0.40347235,0.36766467,0.5446375,73.028453,61.360028)"
       cx="117.69627"
       cy="65.596817"
       fx="117.69627"
       fy="65.596817"
       r="4.237756" />
    <radialGradient
       inkscape:collect="always"
       xlink:href="#linearGradient12643"
       id="radialGradient12661"
       gradientUnits="userSpaceOnUse"
       gradientTransform="matrix(0.67100051,-0.26414164,0.2406994,0.61145001,69.911453,37.919256)"
       cx="117.69627"
       cy="65.596817"
       fx="117.69627"
       fy="65.596817"
       r="4.237756" />
    <radialGradient
       inkscape:collect="always"
       xlink:href="#linearGradient12643"
       id="radialGradient12665"
       gradientUnits="userSpaceOnUse"
       gradientTransform="matrix(-0.65340985,0.05284194,0.04437781,0.64606243,246.29937,-12.994874)"
       cx="117.69627"
       cy="65.596817"
       fx="117.69627"
       fy="65.596817"
       r="4.237756" />
    <radialGradient
       inkscape:collect="always"
       xlink:href="#linearGradient12643"
       id="radialGradient12681"
       gradientUnits="userSpaceOnUse"
       gradientTransform="matrix(0.75228144,0.17967929,-0.09664382,0.67235328,80.318819,-27.136976)"
       cx="117.69627"
       cy="65.596817"
       fx="117.69627"
       fy="65.596817"
       r="4.237756" />
    <radialGradient
       inkscape:collect="always"
       xlink:href="#linearGradient12643"
       id="radialGradient12690"
       gradientUnits="userSpaceOnUse"
       gradientTransform="matrix(-0.75228144,0.17967929,0.09664382,0.67235328,264.88395,-25.67999)"
       cx="117.69627"
       cy="65.596817"
       fx="117.69627"
       fy="65.596817"
       r="4.237756" />
    <radialGradient
       inkscape:collect="always"
       xlink:href="#linearGradient12643"
       id="radialGradient12692"
       gradientUnits="userSpaceOnUse"
       gradientTransform="matrix(-0.59768098,-0.40347235,-0.36766467,0.5446375,272.17431,62.817014)"
       cx="117.69627"
       cy="65.596817"
       fx="117.69627"
       fy="65.596817"
       r="4.237756" />
    <radialGradient
       inkscape:collect="always"
       xlink:href="#linearGradient12643"
       id="radialGradient12694"
       gradientUnits="userSpaceOnUse"
       gradientTransform="matrix(-0.67100051,-0.26414164,-0.2406994,0.61145001,275.40821,38.649011)"
       cx="117.69627"
       cy="65.596817"
       fx="117.69627"
       fy="65.596817"
       r="4.237756" />
    <radialGradient
       inkscape:collect="always"
       xlink:href="#linearGradient12643"
       id="radialGradient12698"
       gradientUnits="userSpaceOnUse"
       gradientTransform="matrix(-0.67100051,-0.26414164,-0.2406994,0.61145001,272.21812,39.721585)"
       cx="117.69627"
       cy="65.596817"
       fx="117.69627"
       fy="65.596817"
       r="4.237756" />
    <radialGradient
       inkscape:collect="always"
       xlink:href="#linearGradient12643"
       id="radialGradient12702"
       gradientUnits="userSpaceOnUse"
       gradientTransform="matrix(-0.67100051,-0.26414164,-0.2406994,0.61145001,269.21844,39.721585)"
       cx="117.69627"
       cy="65.596817"
       fx="117.69627"
       fy="65.596817"
       r="4.237756" />
    <radialGradient
       inkscape:collect="always"
       xlink:href="#linearGradient12643"
       id="radialGradient12708"
       gradientUnits="userSpaceOnUse"
       gradientTransform="matrix(0.67100051,-0.26414164,0.2406994,0.61145001,74.825301,39.9787)"
       cx="117.69627"
       cy="65.596817"
       fx="117.69627"
       fy="65.596817"
       r="4.237756" />
    <radialGradient
       inkscape:collect="always"
       xlink:href="#linearGradient12643"
       id="radialGradient12710"
       gradientUnits="userSpaceOnUse"
       gradientTransform="matrix(0.67100051,-0.26414164,0.2406994,0.61145001,77.396456,39.46447)"
       cx="117.69627"
       cy="65.596817"
       fx="117.69627"
       fy="65.596817"
       r="4.237756" />
    <radialGradient
       inkscape:collect="always"
       xlink:href="#linearGradient12643"
       id="radialGradient12718"
       gradientUnits="userSpaceOnUse"
       gradientTransform="matrix(-0.71161437,-0.09527004,-0.1063375,0.52940854,265.61258,12.181779)"
       cx="117.69627"
       cy="65.596817"
       fx="117.69627"
       fy="65.596817"
       r="4.237756" />
    <radialGradient
       inkscape:collect="always"
       xlink:href="#linearGradient12643"
       id="radialGradient12722"
       gradientUnits="userSpaceOnUse"
       gradientTransform="matrix(0.71161437,-0.09362205,0.1063375,0.52025077,79.03512,11.817585)"
       cx="117.69627"
       cy="65.596817"
       fx="117.69627"
       fy="65.596817"
       r="4.237756" />
    <radialGradient
       inkscape:collect="always"
       xlink:href="#linearGradient12643"
       id="radialGradient12726"
       gradientUnits="userSpaceOnUse"
       gradientTransform="matrix(0.71161437,-0.10021401,0.1063375,0.55688183,76.378263,9.4176364)"
       cx="117.69627"
       cy="65.596817"
       fx="117.69627"
       fy="65.596817"
       r="4.237756" />
    <radialGradient
       inkscape:collect="always"
       xlink:href="#linearGradient12643"
       id="radialGradient12730"
       gradientUnits="userSpaceOnUse"
       gradientTransform="matrix(0.71161437,-0.09362205,0.1063375,0.52025077,73.807111,9.5892533)"
       cx="117.69627"
       cy="65.596817"
       fx="117.69627"
       fy="65.596817"
       r="4.237756" />
    <radialGradient
       inkscape:collect="always"
       xlink:href="#linearGradient12643"
       id="radialGradient12734"
       gradientUnits="userSpaceOnUse"
       gradientTransform="matrix(0.71161437,-0.11669392,0.1063375,0.64845945,70.893139,2.3464524)"
       cx="117.69627"
       cy="65.596817"
       fx="117.69627"
       fy="65.596817"
       r="4.237756" />
    <radialGradient
       inkscape:collect="always"
       xlink:href="#linearGradient12643"
       id="radialGradient12762"
       gradientUnits="userSpaceOnUse"
       gradientTransform="matrix(-0.71161437,-0.09527004,-0.1063375,0.52940854,269.04078,10.639088)"
       cx="117.69627"
       cy="65.596817"
       fx="117.69627"
       fy="65.596817"
       r="4.237756" />
    <radialGradient
       inkscape:collect="always"
       xlink:href="#linearGradient12643"
       id="radialGradient12766"
       gradientUnits="userSpaceOnUse"
       gradientTransform="matrix(-0.71161437,-0.09527004,-0.1063375,0.52940854,272.46898,9.4392172)"
       cx="117.69627"
       cy="65.596817"
       fx="117.69627"
       fy="65.596817"
       r="4.237756" />
    <radialGradient
       inkscape:collect="always"
       xlink:href="#linearGradient12643"
       id="radialGradient12770"
       gradientUnits="userSpaceOnUse"
       gradientTransform="matrix(-0.71161437,-0.11669392,-0.1063375,0.64845945,274.63232,3.3749131)"
       cx="117.69627"
       cy="65.596817"
       fx="117.69627"
       fy="65.596817"
       r="4.237756" />
    <radialGradient
       inkscape:collect="always"
       xlink:href="#linearGradient12631"
       id="radialGradient12774"
       gradientUnits="userSpaceOnUse"
       gradientTransform="matrix(0.77170759,-0.33396009,1.4383441,1.6591144,-48.133123,-20.349464)"
       cx="117.69627"
       cy="65.596817"
       fx="117.69627"
       fy="65.596817"
       r="4.237756" />
    <radialGradient
       inkscape:collect="always"
       xlink:href="#linearGradient12643"
       id="radialGradient1030"
       gradientUnits="userSpaceOnUse"
       gradientTransform="matrix(0.9342822,0.45766458,-0.61834389,0.81631335,140.51484,-59.471452)"
       cx="117.69627"
       cy="65.596817"
       fx="117.69627"
       fy="65.596817"
       r="4.237756" />
    <radialGradient
       inkscape:collect="always"
       xlink:href="#linearGradient12631"
       id="radialGradient1032"
       gradientUnits="userSpaceOnUse"
       gradientTransform="matrix(0.77170759,-0.33396009,1.4383441,1.6591144,-48.133123,-20.349464)"
       cx="117.69627"
       cy="65.596817"
       fx="117.69627"
       fy="65.596817"
       r="4.237756" />
    <linearGradient
       inkscape:collect="always"
       xlink:href="#linearGradient1040"
       id="linearGradient1074"
       x1="167.27098"
       y1="38.503986"
       x2="167.17482"
       y2="39.677006"
       gradientUnits="userSpaceOnUse"
       gradientTransform="translate(-0.13874109,-0.16327707)" />
    <linearGradient
       inkscape:collect="always"
       xlink:href="#linearGradient1040"
       id="linearGradient1044"
       gradientUnits="userSpaceOnUse"
       x1="167.27098"
       y1="38.503986"
       x2="167.17482"
       y2="39.677006"
       gradientTransform="matrix(-0.99260732,0.12137014,0.12137014,0.99260732,339.41478,-20.209573)" />
    <radialGradient
       inkscape:collect="always"
       xlink:href="#linearGradient12643"
       id="radialGradient1048"
       gradientUnits="userSpaceOnUse"
       gradientTransform="matrix(0.71161437,-0.10021401,0.1063375,0.55688183,74.799355,13.399564)"
       cx="117.69627"
       cy="65.596817"
       fx="117.69627"
       fy="65.596817"
       r="4.237756" />
    <radialGradient
       inkscape:collect="always"
       xlink:href="#linearGradient12643"
       id="radialGradient1052"
       gradientUnits="userSpaceOnUse"
       gradientTransform="matrix(0.71161437,-0.10021401,0.1063375,0.55688183,77.593579,15.415106)"
       cx="117.69627"
       cy="65.596817"
       fx="117.69627"
       fy="65.596817"
       r="4.237756" />
    <radialGradient
       inkscape:collect="always"
       xlink:href="#linearGradient12643"
       id="radialGradient1056"
       gradientUnits="userSpaceOnUse"
       gradientTransform="matrix(0.71161437,-0.10021401,0.1063375,0.55688183,80.185764,16.107225)"
       cx="117.69627"
       cy="65.596817"
       fx="117.69627"
       fy="65.596817"
       r="4.237756" />
    <radialGradient
       inkscape:collect="always"
       xlink:href="#linearGradient12643"
       id="radialGradient1060"
       gradientUnits="userSpaceOnUse"
       gradientTransform="matrix(-0.71851662,-0.01310442,-0.03796256,0.56567118,260.7846,6.1997805)"
       cx="117.69627"
       cy="65.596817"
       fx="117.69627"
       fy="65.596817"
       r="4.237756" />
    <radialGradient
       inkscape:collect="always"
       xlink:href="#linearGradient12643"
       id="radialGradient1064"
       gradientUnits="userSpaceOnUse"
       gradientTransform="matrix(-0.71851662,-0.01310442,-0.03796256,0.56567118,263.38723,5.0698146)"
       cx="117.69627"
       cy="65.596817"
       fx="117.69627"
       fy="65.596817"
       r="4.237756" />
    <radialGradient
       inkscape:collect="always"
       xlink:href="#linearGradient12643"
       id="radialGradient1069"
       gradientUnits="userSpaceOnUse"
       gradientTransform="matrix(-0.71851662,-0.01310442,-0.03796256,0.56567118,265.95302,3.3349435)"
       cx="117.69627"
       cy="65.596817"
       fx="117.69627"
       fy="65.596817"
       r="4.237756" />
    <radialGradient
       inkscape:collect="always"
       xlink:href="#linearGradient1001"
       id="radialGradient1009"
       cx="209.42006"
       cy="25.630764"
       fx="209.42006"
       fy="25.630764"
       r="66.810829"
       gradientUnits="userSpaceOnUse"
       gradientTransform="matrix(0.43330203,1.0300454,-0.81654535,0.34349057,160.4827,-180.84272)" />
    <radialGradient
       inkscape:collect="always"
       xlink:href="#linearGradient1001"
       id="radialGradient1016"
       gradientUnits="userSpaceOnUse"
       gradientTransform="matrix(0.59862969,0.94360311,-1.0141874,0.64340919,131.38781,-170.64861)"
       cx="191.56073"
       cy="-43.738079"
       fx="191.56073"
       fy="-43.738079"
       r="66.810829" />
    <linearGradient
       inkscape:collect="always"
       xlink:href="#linearGradient27063"
       id="linearGradient1266"
       gradientUnits="userSpaceOnUse"
       gradientTransform="translate(81.938066,-23.235288)"
       x1="159.76387"
       y1="91.538589"
       x2="168.39485"
       y2="91.902206" />
    <linearGradient
       inkscape:collect="always"
       xlink:href="#linearGradient27063"
       id="linearGradient1004"
       gradientUnits="userSpaceOnUse"
       gradientTransform="translate(0.40923341,-12.212355)"
       x1="159.76387"
       y1="91.538589"
       x2="168.39485"
       y2="91.902206" />
    <linearGradient
       inkscape:collect="always"
       xlink:href="#linearGradient26943"
       id="linearGradient1010"
       gradientUnits="userSpaceOnUse"
       gradientTransform="translate(5.1629236,-12.501903)"
       x1="178.02519"
       y1="92.637024"
       x2="186.851"
       y2="92.273407" />
  </defs>
  <metadata
     id="metadata5">
    <rdf:RDF>
      <cc:Work
         rdf:about="">
        <dc:format>image/svg+xml</dc:format>
        <dc:type
           rdf:resource="http://purl.org/dc/dcmitype/StillImage" />
        <dc:title />
      </cc:Work>
    </rdf:RDF>
  </metadata>
  <path
     inkscape:connector-curvature="0"
     style="fill:#000000;fill-opacity:1;stroke:none;stroke-width:0.27460441"
     d="m 207.51229,138.7764 c 0,3.43497 -7.05183,6.42802 -17.48329,7.99397 -4.92157,0.73883 -10.59547,1.15997 -16.63597,1.15997 -6.69746,0 -12.94418,-0.51774 -18.21453,-1.41217 -9.558,-1.62207 -15.90473,-4.48307 -15.90473,-7.74177 0,-3.1705 6.00772,-5.96452 15.13554,-7.60735 5.4272,-0.97679 11.95743,-1.54661 18.98372,-1.54661 6.28088,0 12.16537,0.45534 17.2199,1.24967 10.10983,1.58878 16.89936,4.53381 16.89936,7.90429 z"
     id="path860"
     sodipodi:nodetypes="sssssssss" />
  <g
     id="g1028"
     transform="rotate(3.4855919,-163.03838,47.37591)"><path
   id="path12684"
   style="opacity:1;fill:url(#radialGradient12690);fill-opacity:1;stroke:none;stroke-width:0.40053299"
   d="m 181.04894,40.232011 c 0.6294,3.422044 2.72137,5.587835 2.72137,5.587835 0,0 1e-4,-2.41e-4 3.1e-4,-7.25e-4 0.0251,-0.06079 1.63749,-3.986023 1.01298,-7.38148 0,0 0,-2e-6 0,-3e-6 -0.62943,-3.422027 -3.29257,-5.010102 -3.29257,-5.010102 0,0 1e-5,2e-6 0,1.3e-5 -1.7e-4,5.47e-4 -1.07145,3.382711 -0.44209,6.804462 0,0 0,0 0,0"
   inkscape:connector-curvature="0" />
<path
   inkscape:connector-curvature="0"
   d="m 176.24129,50.371339 c -1.78302,2.869045 -1.82443,5.879845 -1.82443,5.879845 0,0 2.2e-4,-1.01e-4 6.6e-4,-2.97e-4 0.055,-0.02535 3.59845,-1.669216 5.36762,-4.515966 0,-10e-7 0,-3e-6 0,-5e-6 1.78299,-2.86905 1.08859,-5.873471 1.08859,-5.873471 0,0 0,3e-6 -1e-5,9e-6 -4.6e-4,2.63e-4 -2.84957,1.641074 -4.63243,4.509885 0,0 0,0 0,0"
   style="opacity:1;fill:url(#radialGradient12692);fill-opacity:1;stroke:none;stroke-width:0.38119343"
   id="path12686" />
<path
   sodipodi:nodetypes="cccccc"
   inkscape:connector-curvature="0"
   id="rect122237"
   d="m 164.24251,35.886204 h 17.69596 l -2.74256,18.968316 -8.32983,0.726255 -3.36678,-4.325868 z"
   style="fill:#803300;fill-opacity:1;stroke:none;stroke-width:0.31340754" />
<path
   inkscape:connector-curvature="0"
   d="m 176.68877,34.147517 c -0.42048,2.736347 0.80045,4.98347 0.80045,4.98347 0,0 1.6e-4,-1.51e-4 4.7e-4,-4.47e-4 0.0393,-0.03757 2.57124,-2.466029 2.98846,-5.181111 0,0 0,-2e-6 0,-4e-6 0.42045,-2.73634 -1.46627,-4.727625 -1.46627,-4.727625 0,0 1e-5,3e-6 0,10e-6 -3e-4,3.53e-4 -1.90269,2.18959 -2.32311,4.925707 0,0 0,0 0,0"
   style="opacity:1;fill:url(#radialGradient12762);fill-opacity:1;stroke:none;stroke-width:0.34442881"
   id="path12760"
   inkscape:transform-center-x="-3.2035819"
   inkscape:transform-center-y="-0.078520199" />
<path
   inkscape:transform-center-y="-0.078520199"
   inkscape:transform-center-x="-3.2035819"
   id="path12716"
   style="opacity:1;fill:url(#radialGradient12718);fill-opacity:1;stroke:none;stroke-width:0.34442881"
   d="m 173.26057,35.690208 c -0.42048,2.736347 0.80045,4.98347 0.80045,4.98347 0,0 1.6e-4,-1.51e-4 4.7e-4,-4.47e-4 0.0393,-0.03757 2.57124,-2.466029 2.98846,-5.181111 0,0 0,-2e-6 0,-4e-6 0.42045,-2.73634 -1.46627,-4.727625 -1.46627,-4.727625 0,0 1e-5,3e-6 0,10e-6 -3e-4,3.53e-4 -1.90269,2.18959 -2.32311,4.925707 0,0 0,0 0,0"
   inkscape:connector-curvature="0" />
<path
   inkscape:connector-curvature="0"
   d="m 175.87057,48.392786 c -1.11786,3.187628 -0.50485,6.135654 -0.50485,6.135654 0,0 2e-4,-1.47e-4 5.8e-4,-4.34e-4 0.0482,-0.03668 3.15042,-2.410398 4.25959,-5.573257 0,-10e-7 0,-3e-6 0,-5e-6 1.11783,-3.187627 -0.21207,-5.969733 -0.21207,-5.969733 0,0 0,3e-6 -10e-6,1.1e-5 -3.9e-4,3.56e-4 -2.42549,2.220398 -3.54324,5.407764 0,0 0,0 0,0"
   style="opacity:1;fill:url(#radialGradient12698);fill-opacity:1;stroke:none;stroke-width:0.38119343"
   id="path12696" />
<path
   inkscape:connector-curvature="0"
   d="m 164.15383,38.775025 c -0.6294,3.422044 -2.72137,5.587835 -2.72137,5.587835 0,0 -1e-4,-2.41e-4 -3.1e-4,-7.25e-4 -0.0251,-0.06079 -1.63749,-3.986023 -1.01298,-7.38148 0,0 0,-2e-6 0,-3e-6 0.62943,-3.422027 3.29257,-5.010102 3.29257,-5.010102 0,0 -1e-5,2e-6 0,1.3e-5 1.7e-4,5.47e-4 1.07145,3.382711 0.44209,6.804462 0,0 0,0 0,0"
   style="opacity:1;fill:url(#radialGradient12681);fill-opacity:1;stroke:none;stroke-width:0.40053299"
   id="path12679" />
<path
   inkscape:transform-center-y="-0.096177171"
   inkscape:transform-center-x="3.2035861"
   id="path12732"
   style="opacity:1;fill:url(#radialGradient12734);fill-opacity:1;stroke:none;stroke-width:0.38119343"
   d="m 163.24515,31.141348 c 0.42048,3.351683 -0.80045,6.104129 -0.80045,6.104129 0,0 -1.6e-4,-1.85e-4 -4.7e-4,-5.47e-4 -0.0393,-0.04602 -2.57124,-3.020579 -2.98846,-6.346215 0,-1e-6 0,-3e-6 0,-5e-6 -0.42045,-3.351676 1.46627,-5.790751 1.46627,-5.790751 0,0 -1e-5,3e-6 0,1.2e-5 3e-4,4.32e-4 1.90269,2.681974 2.32311,6.033377 0,0 0,0 0,0"
   inkscape:connector-curvature="0" />
<path
   inkscape:connector-curvature="0"
   d="m 171.38713,34.919363 c 0.42048,2.689013 -0.80045,4.897265 -0.80045,4.897265 0,0 -1.6e-4,-1.48e-4 -4.7e-4,-4.39e-4 -0.0393,-0.03692 -2.57124,-2.423372 -2.98846,-5.091487 0,-10e-7 0,-3e-6 0,-4e-6 -0.42045,-2.689008 1.46627,-4.645846 1.46627,-4.645846 0,0 -1e-5,2e-6 0,9e-6 3e-4,3.47e-4 1.90269,2.151714 2.32311,4.840502 0,0 0,0 0,0"
   style="opacity:1;fill:url(#radialGradient12722);fill-opacity:1;stroke:none;stroke-width:0.34143683"
   id="path12720"
   inkscape:transform-center-x="3.2035861"
   inkscape:transform-center-y="-0.077161509" />
<path
   id="path12688"
   style="opacity:1;fill:url(#radialGradient12694);fill-opacity:1;stroke:none;stroke-width:0.38119343"
   d="m 179.06066,47.320212 c -1.11786,3.187628 -0.50485,6.135654 -0.50485,6.135654 0,0 2e-4,-1.47e-4 5.8e-4,-4.34e-4 0.0482,-0.03668 3.15042,-2.410398 4.25959,-5.573257 0,-10e-7 0,-3e-6 0,-5e-6 1.11783,-3.187627 -0.21207,-5.969733 -0.21207,-5.969733 0,0 0,3e-6 -1e-5,1.1e-5 -3.9e-4,3.56e-4 -2.42549,2.220398 -3.54324,5.407764 0,0 0,0 0,0"
   inkscape:connector-curvature="0" />
<path
   id="path12700"
   style="opacity:1;fill:url(#radialGradient12702);fill-opacity:1;stroke:none;stroke-width:0.38119343"
   d="m 172.87089,48.392786 c -1.11786,3.187628 -0.50485,6.135654 -0.50485,6.135654 0,0 2e-4,-1.47e-4 5.8e-4,-4.34e-4 0.0482,-0.03668 3.15042,-2.410398 4.25959,-5.573257 0,-10e-7 0,-3e-6 0,-5e-6 1.11783,-3.187627 -0.21207,-5.969733 -0.21207,-5.969733 0,0 0,3e-6 -1e-5,1.1e-5 -3.9e-4,3.56e-4 -2.42549,2.220398 -3.54324,5.407764 0,0 0,0 0,0"
   inkscape:connector-curvature="0" />
<path
   sodipodi:nodetypes="ccccccccccccc"
   style="fill:#c8b7b7;stroke:#000000;stroke-width:0.26458332px;stroke-linecap:butt;stroke-linejoin:miter;stroke-opacity:1"
   d="m 165.63246,55.27564 4.88179,1.907076 5.82339,2.186886 4.45591,-2.16233 5.05742,10.381207 3.04998,18.689214 -0.44512,7.036118 -15.2102,1.182237 -10.26962,2.08618 -4.61462,-1.102494 0.30089,-11.458589 2.02501,-18.218622 z"
   id="path26937"
   inkscape:connector-curvature="0" />
<path
   style="fill:#451907;fill-opacity:1;stroke:#ffff00;stroke-width:0.26458332;stroke-miterlimit:4;stroke-dasharray:none;stroke-opacity:1"
   d="m 209.16211,100.57177 c 0.29969,0.39219 1.28617,1.73088 1.64744,2.87992 -0.42338,-1.906 -1.26192,-2.63694 -1.64744,-2.87992 z"
   id="path15584"
   inkscape:connector-curvature="0" />
<path
   style="fill:#451907;fill-opacity:1;stroke:#ffff00;stroke-width:0.26458332;stroke-miterlimit:4;stroke-dasharray:none;stroke-opacity:1"
   d="m 210.93512,104.12348 c 0.004,0.61105 0.085,2.15054 -0.0971,3.50728 0.0566,-0.23914 0.10542,-0.4836 0.14005,-0.73639 0.0158,-0.11517 0.0286,-0.2317 0.0398,-0.34933 0.002,-0.0242 0.005,-0.0481 0.007,-0.0724 1.9e-4,-0.002 2.6e-4,-0.004 5.3e-4,-0.007 0.009,-0.10371 0.0154,-0.20829 0.0207,-0.31367 0.002,-0.0375 0.004,-0.075 0.005,-0.11266 0.004,-0.10375 0.006,-0.20801 0.007,-0.31316 1.5e-4,-0.0383 -2.1e-4,-0.0767 -5.3e-4,-0.11524 -8e-4,-0.10255 -0.003,-0.20535 -0.007,-0.30902 -0.002,-0.0523 -0.005,-0.10502 -0.008,-0.15761 -0.005,-0.0897 -0.0101,-0.17938 -0.0176,-0.26975 -0.006,-0.0745 -0.0139,-0.1494 -0.0217,-0.22428 -2.7e-4,-0.004 -5.3e-4,-0.008 -10e-4,-0.0114 -0.007,-0.0669 -0.0133,-0.13337 -0.0217,-0.2005 -0.0131,-0.1047 -0.0291,-0.20997 -0.0455,-0.31523 z"
   id="path15570"
   inkscape:connector-curvature="0" />
<path
   style="fill:#451907;fill-opacity:1;stroke:#ffff00;stroke-width:0.26458332;stroke-miterlimit:4;stroke-dasharray:none;stroke-opacity:1"
   d="m 209.21999,110.41147 c -0.26222,0.14908 -0.53832,0.2697 -0.82011,0.36742 0.29812,-0.0961 0.5766,-0.21062 0.82011,-0.36742 z"
   id="path15568"
   inkscape:connector-curvature="0" />
<path
   style="fill:url(#linearGradient27065);fill-opacity:1;stroke:none;stroke-width:0.26458335px;stroke-linecap:butt;stroke-linejoin:miter;stroke-opacity:1;filter:url(#filter27055)"
   d="m 165.6097,60.922191 c 0,0 2.00302,1.61865 2.60591,3.393747 0.60289,1.775097 0.22853,4.970596 0,6.969302 -0.22853,1.998706 -1.30203,3.69901 -1.15145,4.969415 0.15058,1.270405 0.25211,1.787626 1.15145,2.302899 0.89934,0.515273 3.19133,-1.408285 3.63616,-0.242409 0.44483,1.165876 -3.08752,1.284507 -3.03014,2.363502 0.0574,1.078995 2.0947,0.463683 2.2423,1.39386 0.1476,0.930177 -1.45133,1.459168 -1.93928,2.302899 -0.48795,0.843731 -0.84843,2.424105 -0.96964,2.666515 -0.12121,0.24241 -2.45884,0.464519 -2.72712,1.151451 -0.26828,0.686935 0.78238,0.776925 0.60602,1.333255 -0.17636,0.55633 -1.74698,0.36854 -1.75747,1.03025 -0.0105,0.66171 1.58686,0.17781 1.63627,1.03024 0.0494,0.85243 -2.84272,0.98412 -2.48471,1.99989 0.35801,1.01577 2.21195,-0.0104 3.27254,0 1.06059,0.0104 2.60975,-0.60588 3.09074,0.0606 0.48099,0.66648 0.79912,0.67532 -0.54543,1.75748 -1.34455,1.08216 -6.93246,1.92804 -8.48436,0.72723 -1.5519,-1.20081 -0.62319,-0.10416 -0.54543,-3.21194 0.0778,-3.10778 2.78524,-10.861743 3.33314,-15.029451 0.5479,-4.167708 0.0419,-6.982842 0.42422,-9.817627 0.38233,-2.834785 1.63628,-7.151108 1.63628,-7.151108 z"
   id="path26935"
   inkscape:connector-curvature="0"
   sodipodi:nodetypes="czzzzzzzzzzzzzzzzzzzzzc" />
<path
   sodipodi:nodetypes="cscccccc"
   inkscape:connector-curvature="0"
   id="rect8385"
   d="m 167.18535,55.22554 c 0,0 5.0253,5.33075 6.36398,5.144904 1.13149,-0.157081 4.72632,-4.660083 4.72632,-4.660083 l 7.63914,18.380205 2.11788,19.920651 -19.7858,2.601299 -8.0916,1.063821 z"
   style="fill:none;fill-opacity:1;stroke:none;stroke-width:0.26458332" />
<path
   id="path12651"
   style="opacity:1;fill:url(#radialGradient12653);fill-opacity:1;stroke:none;stroke-width:0.516734"
   d="m 174.82952,56.430832 c -1.54575,4.115603 -0.6225,7.897985 -0.6225,7.897985 0,0 2.7e-4,-1.91e-4 8.2e-4,-5.66e-4 0.0682,-0.0479 4.46214,-3.14551 5.99588,-7.229129 0,-2e-6 0,-4e-6 0,-6e-6 1.5457,-4.115602 -0.39909,-7.674218 -0.39909,-7.674218 0,0 0,4e-6 0,1.6e-5 -5.5e-4,4.62e-4 -3.42952,2.890656 -4.97511,7.005918 0,0 0,0 0,0"
   inkscape:connector-curvature="0" />
<path
   id="path12704"
   style="opacity:1;fill:url(#radialGradient12708);fill-opacity:1;stroke:none;stroke-width:0.38119343"
   d="m 171.17286,48.649901 c 1.11786,3.187628 0.50485,6.135654 0.50485,6.135654 0,0 -2e-4,-1.47e-4 -5.8e-4,-4.34e-4 -0.0482,-0.03668 -3.15042,-2.410398 -4.25959,-5.573257 0,-10e-7 0,-3e-6 0,-5e-6 -1.11783,-3.187627 0.21207,-5.969733 0.21207,-5.969733 0,0 0,3e-6 10e-6,1.1e-5 3.9e-4,3.56e-4 2.42549,2.220398 3.54324,5.407764 0,0 0,0 0,0"
   inkscape:connector-curvature="0" />
<rect
   y="90.375069"
   x="139.30815"
   height="18.786814"
   width="69.450607"
   id="rect874"
   style="fill:none;fill-opacity:1;stroke:none;stroke-width:0.26458332" />
<path
   style="opacity:0.6520004;fill:#4d4d4d;stroke:none;stroke-width:0.26458335px;stroke-linecap:butt;stroke-linejoin:miter;stroke-opacity:1;filter:url(#filter27175)"
   d="m 168.62115,76.70215 c 1.54537,-0.333315 3.79195,-1.674784 5.63605,-1.939284 1.8441,-0.2645 4.20841,0.830775 5.21182,0.242411 1.00341,-0.588364 1.18115,-0.939274 0.78784,-1.575671 -0.39331,-0.636397 -2.48471,0 -2.72712,0 -0.24241,0 -3.75735,-0.181804 -4.90881,-0.121203 -1.15146,0.0606 -3.69677,1.090845 -3.99978,1.212051 -0.30301,0.121206 -2.10637,0.410603 -2.06049,1.151451 0.0459,0.740848 1.39387,0.787834 1.93929,0.787834 0.54543,0 -1.42417,0.575726 0.1212,0.242411 z"
   id="path26927"
   inkscape:connector-curvature="0"
   sodipodi:nodetypes="zzzzzzzzzz"
   transform="matrix(0.91590756,0,0,0.91590756,14.590484,6.3049492)" />
<path
   style="opacity:0.77300002;fill:#483737;stroke:none;stroke-width:0.26458335px;stroke-linecap:butt;stroke-linejoin:miter;stroke-opacity:1;filter:url(#filter27187)"
   d="m 170.53574,82.044076 c 1.18883,-0.05667 4.36338,-1.151448 4.6664,-1.515065 0.30302,-0.363617 3.28285,-1.200815 4.36339,-1.757477 1.08054,-0.556662 1.7543,-0.997357 2.1817,-1.393859 0.4274,-0.396502 0.8609,-0.234166 0.54542,-0.727231 -0.31548,-0.493065 -1.54473,0.315392 -2.54531,0.545422 -1.00058,0.23003 -2.06627,0.444519 -3.45435,0.848437 -1.38808,0.403918 -3.61832,1.194648 -4.84821,1.636271 -1.22989,0.441623 -2.06182,0.564732 -2.54531,0.969642 -0.48349,0.40491 -0.76224,0.404482 -0.54542,0.90904 0.21682,0.504558 0.99286,0.541493 2.18169,0.48482 z"
   id="path26929"
   inkscape:connector-curvature="0"
   sodipodi:nodetypes="zzzzzzzzzzz" />
<path
   style="opacity:0.39800002;fill:#483737;stroke:none;stroke-width:0.26458335px;stroke-linecap:butt;stroke-linejoin:miter;stroke-opacity:1;filter:url(#filter27199)"
   d="m 180.09372,88.799397 c -0.7465,-1.219165 -4.98944,-0.0843 -7.0299,-0.18181 -2.04046,-0.0975 -3.90488,-0.0264 -5.21183,-0.36361 -1.30695,-0.337207 -1.94629,-1.221389 -2.60591,-1.212056 -0.65962,0.0093 -0.94881,-0.265596 -0.96964,0.484823 -0.0208,0.750423 1.80353,1.223543 2.96953,1.696873 1.166,0.47333 2.70929,0.8344 3.99977,1.03025 1.29048,0.19585 2.68591,0.16992 3.69676,0.1818 1.01085,0.0119 1.6158,-0.019 2.3635,-0.0606 0.7477,-0.0416 1.61749,0.16651 2.12109,-0.18181 0.5036,-0.34832 1.41313,-0.17469 0.66663,-1.39386 z"
   id="path26931"
   inkscape:connector-curvature="0"
   sodipodi:nodetypes="zzzzzzzzzzz" />
<path
   sodipodi:nodetypes="zzzzzzzzzzz"
   inkscape:connector-curvature="0"
   id="path1017"
   d="m 180.09372,88.799397 c -0.7465,-1.219165 -4.98944,-0.0843 -7.0299,-0.18181 -2.04046,-0.0975 -3.90488,-0.0264 -5.21183,-0.36361 -1.30695,-0.337207 -1.94629,-1.221389 -2.60591,-1.212056 -0.65962,0.0093 -0.94881,-0.265596 -0.96964,0.484823 -0.0208,0.750423 1.80353,1.223543 2.96953,1.696873 1.166,0.47333 2.70929,0.8344 3.99977,1.03025 1.29048,0.19585 2.68591,0.16992 3.69676,0.1818 1.01085,0.0119 1.6158,-0.019 2.3635,-0.0606 0.7477,-0.0416 1.61749,0.16651 2.12109,-0.18181 0.5036,-0.34832 1.41313,-0.17469 0.66663,-1.39386 z"
   style="opacity:0.39800002;fill:#333333;stroke:none;stroke-width:0.26458335px;stroke-linecap:butt;stroke-linejoin:miter;stroke-opacity:1;filter:url(#filter27199)"
   transform="matrix(1.2917921,-0.00239785,-0.00239785,1.2525712,-50.465534,-22.308374)" />
<path
   style="opacity:0.98299997;fill:url(#linearGradient26945);fill-opacity:1;stroke:#000000;stroke-width:0.26458335px;stroke-linecap:butt;stroke-linejoin:miter;stroke-opacity:1;filter:url(#filter27019)"
   d="m 181.66939,67.83089 c -1.32719,0.761588 -0.0675,2.87141 -0.48482,3.93917 -0.4173,1.06776 -1.40913,1.405331 -1.69687,2.363502 -0.28774,0.958171 0.33675,2.069195 0.1212,3.090735 -0.21555,1.02154 -1.29969,1.559812 -1.39386,2.848325 -0.0942,1.288513 1.53854,3.046597 1.39386,4.363386 -0.14468,1.316789 -2.19416,1.830743 -1.69687,2.908927 0.49729,1.078182 3.18456,-0.590601 3.69676,0.666629 0.5122,1.257233 -2.97241,2.135163 -2.54531,3.575553 0.4271,1.44039 2.7815,1.50092 4.30278,1.69688 1.52128,0.19596 2.78557,0.83987 4.5452,-0.54543 1.75963,-1.3853 2.98334,-4.28775 3.09073,-8.302559 0.10739,-4.014807 -4.18157,-14.241617 -4.54519,-14.54463 -0.36362,-0.303013 -3.46042,-2.822076 -4.78761,-2.060488 z"
   id="path26933"
   inkscape:connector-curvature="0"
   sodipodi:nodetypes="zzzzzzzzzzzzzz" />
<path
   inkscape:connector-curvature="0"
   d="m 173.74401,48.135671 c 1.11786,3.187628 0.50485,6.135654 0.50485,6.135654 0,0 -2e-4,-1.47e-4 -5.8e-4,-4.34e-4 -0.0482,-0.03668 -3.15042,-2.410398 -4.25959,-5.573257 0,-10e-7 0,-3e-6 0,-5e-6 -1.11783,-3.187627 0.21207,-5.969733 0.21207,-5.969733 0,0 0,3e-6 1e-5,1.1e-5 3.9e-4,3.56e-4 2.42549,2.220398 3.54324,5.407764 0,0 0,0 0,0"
   style="opacity:1;fill:url(#radialGradient12710);fill-opacity:1;stroke:none;stroke-width:0.38119343"
   id="path12706" />
<path
   id="path12655"
   style="opacity:1;fill:url(#radialGradient12657);fill-opacity:1;stroke:none;stroke-width:0.38119343"
   d="m 168.96148,48.914353 c 1.78302,2.869045 1.82443,5.879845 1.82443,5.879845 0,0 -2.2e-4,-1.01e-4 -6.6e-4,-2.97e-4 -0.055,-0.02535 -3.59845,-1.669216 -5.36762,-4.515966 0,-10e-7 0,-3e-6 0,-5e-6 -1.78299,-2.86905 -1.08859,-5.873471 -1.08859,-5.873471 0,0 0,3e-6 1e-5,9e-6 4.6e-4,2.63e-4 2.84957,1.641074 4.63243,4.509885 0,0 0,0 0,0"
   inkscape:connector-curvature="0" />
<path
   inkscape:connector-curvature="0"
   d="m 166.259,46.590457 c 1.11786,3.187628 0.50485,6.135654 0.50485,6.135654 0,0 -2e-4,-1.47e-4 -5.8e-4,-4.34e-4 -0.0482,-0.03668 -3.15042,-2.410398 -4.25959,-5.573257 0,-10e-7 0,-3e-6 0,-5e-6 -1.11783,-3.187627 0.21207,-5.969733 0.21207,-5.969733 0,0 0,3e-6 10e-6,1.1e-5 3.9e-4,3.56e-4 2.42549,2.220398 3.54324,5.407764 0,0 0,0 0,0"
   style="opacity:1;fill:url(#radialGradient12661);fill-opacity:1;stroke:none;stroke-width:0.38119343"
   id="path12659" />
<path
   id="path11335"
   style="opacity:1;fill:url(#radialGradient12633);fill-opacity:1;stroke:none;stroke-width:0.49025935"
   d="m 171.30842,56.580937 c 1.60144,4.038514 0.9662,7.858665 0.9662,7.858665 0,0 -2.6e-4,-1.78e-4 -7.7e-4,-5.27e-4 -0.0639,-0.04466 -4.17323,-2.934561 -5.76222,-6.941691 0,-2e-6 0,-5e-6 0,-7e-6 -1.6014,-4.038515 -0.0363,-7.682534 -0.0363,-7.682534 0,0 0,4e-6 10e-6,1.4e-5 5.2e-4,4.37e-4 3.23181,2.727899 4.8331,6.76608 0,0 0,0 0,0"
   inkscape:connector-curvature="0" />
<path
   inkscape:transform-center-y="-0.08259477"
   inkscape:transform-center-x="3.2035861"
   id="path12724"
   style="opacity:1;fill:url(#radialGradient12726);fill-opacity:1;stroke:none;stroke-width:0.35325271"
   d="m 168.73027,34.14602 c 0.42048,2.878347 -0.80045,5.242083 -0.80045,5.242083 0,0 -1.6e-4,-1.59e-4 -4.7e-4,-4.7e-4 -0.0393,-0.03952 -2.57124,-2.594002 -2.98846,-5.449981 0,-10e-7 0,-2e-6 0,-4e-6 -0.42045,-2.878341 1.46627,-4.972962 1.46627,-4.972962 0,0 -1e-5,3e-6 0,10e-6 3e-4,3.71e-4 1.90269,2.303217 2.32311,5.181324 0,0 0,0 0,0"
   inkscape:connector-curvature="0" />
<path
   inkscape:connector-curvature="0"
   d="m 211.75062,49.275171 c -3.34148,4.112415 -7.84951,6.193822 -7.84951,6.193822 0,0 4e-5,-3.33e-4 1.4e-4,-8.94e-4 0.008,-0.08435 0.5423,-5.519899 3.85782,-9.600356 0,-10e-7 0,-3e-6 1e-5,-4e-6 3.3415,-4.11239 8.24266,-5.291016 8.24266,-5.291016 0,0 0,2e-6 -1e-5,1.5e-5 -1.4e-4,7.43e-4 -0.90984,4.586478 -4.25106,8.698543 0,0 0,0 0,0"
   style="opacity:0.023;fill:url(#radialGradient1030);fill-opacity:1;stroke:none;stroke-width:0.56625879"
   id="path12635" />
<path
   inkscape:connector-curvature="0"
   d="m 175.87322,57.615796 c -0.25403,4.341197 -2.78599,7.464972 -2.78599,7.464972 0,0 -1.8e-4,-2.72e-4 -5.6e-4,-8.21e-4 -0.0464,-0.06911 -3.02312,-4.530007 -2.77107,-8.837468 0,-2e-6 0,-4e-6 0,-6e-6 0.25406,-4.341184 3.69157,-6.882568 3.69157,-6.882568 0,0 0,4e-6 0,1.6e-5 3.5e-4,6.29e-4 2.12007,3.915041 1.86605,8.255875 0,0 0,0 0,0"
   style="opacity:1;fill:url(#radialGradient12649);fill-opacity:1;stroke:none;stroke-width:0.5313102"
   id="path12647" />
<path
   inkscape:transform-center-y="-0.75960478"
   inkscape:transform-center-x="-2.7782731"
   id="path12663"
   style="opacity:1;fill:url(#radialGradient12665);fill-opacity:1;stroke:none;stroke-width:0.36078832"
   d="m 170.87207,35.972245 c 0.34344,3.309408 2.00883,5.664692 2.00883,5.664692 0,0 1e-4,-2.14e-4 3e-4,-6.32e-4 0.0249,-0.0532 1.6268,-3.489805 1.28603,-6.773496 0,-10e-7 0,-2e-6 0,-5e-6 -0.34347,-3.309393 -2.53007,-5.210285 -2.53007,-5.210285 0,0 1e-5,0 0,1.2e-5 -1.7e-4,4.83e-4 -1.10852,3.010588 -0.76509,6.319714 0,0 0,0 0,0"
   inkscape:connector-curvature="0" />
<path
   inkscape:connector-curvature="0"
   d="m 167.15136,38.127948 c 0.42048,2.878347 -0.80045,5.242083 -0.80045,5.242083 0,0 -1.6e-4,-1.59e-4 -4.7e-4,-4.7e-4 -0.0393,-0.03952 -2.57124,-2.594002 -2.98846,-5.449981 0,-1e-6 0,-2e-6 0,-4e-6 -0.42045,-2.878341 1.46627,-4.972962 1.46627,-4.972962 0,0 -1e-5,3e-6 0,1e-5 3e-4,3.71e-4 1.90269,2.303217 2.32311,5.181324 0,0 0,0 0,0"
   style="opacity:1;fill:url(#radialGradient1048);fill-opacity:1;stroke:none;stroke-width:0.35325271"
   id="path1046"
   inkscape:transform-center-x="3.2035861"
   inkscape:transform-center-y="-0.08259477" />
<path
   inkscape:connector-curvature="0"
   d="m 166.15912,32.691032 c 0.42048,2.689013 -0.80045,4.897265 -0.80045,4.897265 0,0 -1.6e-4,-1.48e-4 -4.7e-4,-4.39e-4 -0.0393,-0.03692 -2.57124,-2.423372 -2.98846,-5.091487 0,-1e-6 0,-3e-6 0,-4e-6 -0.42045,-2.689008 1.46627,-4.645846 1.46627,-4.645846 0,0 -10e-6,2e-6 0,9e-6 3e-4,3.47e-4 1.90269,2.151714 2.32311,4.840502 0,0 0,0 0,0"
   style="opacity:1;fill:url(#radialGradient12730);fill-opacity:1;stroke:none;stroke-width:0.34143683"
   id="path12728"
   inkscape:transform-center-x="3.2035861"
   inkscape:transform-center-y="-0.077161509" />
<path
   inkscape:connector-curvature="0"
   d="m 169.94559,40.143489 c 0.42048,2.878347 -0.80045,5.242083 -0.80045,5.242083 0,0 -1.6e-4,-1.59e-4 -4.7e-4,-4.7e-4 -0.0393,-0.03952 -2.57124,-2.594002 -2.98846,-5.449981 0,-1e-6 0,-2e-6 0,-4e-6 -0.42045,-2.878341 1.46627,-4.972962 1.46627,-4.972962 0,0 -1e-5,3e-6 0,10e-6 3e-4,3.71e-4 1.90269,2.303217 2.32311,5.181324 0,0 0,0 0,0"
   style="opacity:1;fill:url(#radialGradient1052);fill-opacity:1;stroke:none;stroke-width:0.35325271"
   id="path1050"
   inkscape:transform-center-x="3.2035861"
   inkscape:transform-center-y="-0.08259477" />
<path
   inkscape:transform-center-y="-0.078520199"
   inkscape:transform-center-x="-3.2035819"
   id="path12764"
   style="opacity:1;fill:url(#radialGradient12766);fill-opacity:1;stroke:none;stroke-width:0.34442881"
   d="m 180.11697,32.947646 c -0.42048,2.736347 0.80045,4.98347 0.80045,4.98347 0,0 1.6e-4,-1.51e-4 4.7e-4,-4.47e-4 0.0393,-0.03757 2.57124,-2.466029 2.98846,-5.181111 0,0 0,-2e-6 0,-4e-6 0.42045,-2.73634 -1.46627,-4.727625 -1.46627,-4.727625 0,0 1e-5,3e-6 0,10e-6 -3e-4,3.53e-4 -1.90269,2.18959 -2.32311,4.925707 0,0 0,0 0,0"
   inkscape:connector-curvature="0" />
<path
   inkscape:connector-curvature="0"
   d="m 182.28031,32.169809 c -0.42048,3.351683 0.80045,6.104129 0.80045,6.104129 0,0 1.6e-4,-1.85e-4 4.7e-4,-5.47e-4 0.0393,-0.04602 2.57124,-3.020579 2.98846,-6.346215 0,-1e-6 0,-3e-6 0,-5e-6 0.42045,-3.351676 -1.46627,-5.790751 -1.46627,-5.790751 0,0 1e-5,3e-6 0,1.2e-5 -3e-4,4.32e-4 -1.90269,2.681974 -2.32311,6.033377 0,0 0,0 0,0"
   style="opacity:1;fill:url(#radialGradient12770);fill-opacity:1;stroke:none;stroke-width:0.38119343"
   id="path12768"
   inkscape:transform-center-x="-3.2035839"
   inkscape:transform-center-y="-0.096177171" />
<path
   inkscape:transform-center-y="-0.08259477"
   inkscape:transform-center-x="3.2035861"
   id="path1054"
   style="opacity:1;fill:url(#radialGradient1056);fill-opacity:1;stroke:none;stroke-width:0.35325271"
   d="m 172.53777,40.835608 c 0.42048,2.878347 -0.80045,5.242083 -0.80045,5.242083 0,0 -1.6e-4,-1.59e-4 -4.7e-4,-4.7e-4 -0.0393,-0.03952 -2.57124,-2.594002 -2.98846,-5.449981 0,-10e-7 0,-2e-6 0,-4e-6 -0.42045,-2.878341 1.46627,-4.972962 1.46627,-4.972962 0,0 -1e-5,3e-6 0,10e-6 3e-4,3.71e-4 1.90269,2.303217 2.32311,5.181324 0,0 0,0 0,0"
   inkscape:connector-curvature="0" />
<path
   style="fill:#ffe23f;fill-opacity:1;stroke:#000000;stroke-width:0.55498618"
   d="m 172.06919,41.823349 c 0.30199,2.46372 -2.01219,4.494346 -4.49435,4.494342 -2.48216,-1e-6 -4.49434,-2.012186 -4.49434,-4.494342 0,-2.482156 0.57135,-2.775165 3.05351,-2.775166 2.48215,-5e-6 5.89435,2.442091 5.93518,2.775166 z"
   id="path21293-3"
   inkscape:connector-curvature="0"
   sodipodi:nodetypes="scscs" />
<path
   inkscape:connector-curvature="0"
   d="m 172.1166,41.95413 c -0.068,2.908102 1.43077,5.10618 1.43077,5.10618 0,0 1.4e-4,-1.78e-4 4.1e-4,-5.24e-4 0.0342,-0.044 2.2374,-2.886897 2.3049,-5.772401 0,-10e-7 0,-2e-6 0,-4e-6 0.068,-2.908092 -2.059,-4.758237 -2.059,-4.758237 0,0 1e-5,2e-6 0,10e-6 -2.5e-4,4.05e-4 -1.60908,2.51712 -1.67708,5.424976 0,0 0,0 0,0"
   style="opacity:1;fill:url(#radialGradient1060);fill-opacity:1;stroke:none;stroke-width:0.35325271"
   id="path1058"
   inkscape:transform-center-x="-3.2035864"
   inkscape:transform-center-y="-0.082594737" />
<path
   style="fill:#ff9300;fill-opacity:1;stroke:#000000;stroke-width:0.40297297px;stroke-linecap:butt;stroke-linejoin:miter;stroke-opacity:1"
   d="m 172.85117,48.497325 -1.89272,-3.067522 1.82745,-3.067522 1.95799,3.198055 z"
   id="path21297-0"
   inkscape:connector-curvature="0"
   sodipodi:nodetypes="ccccc" />
<path
   inkscape:transform-center-y="-0.082594737"
   inkscape:transform-center-x="-3.2035864"
   id="path1062"
   style="opacity:1;fill:url(#radialGradient1064);fill-opacity:1;stroke:none;stroke-width:0.35325271"
   d="m 174.71923,40.824164 c -0.068,2.908102 1.43077,5.10618 1.43077,5.10618 0,0 1.4e-4,-1.78e-4 4.1e-4,-5.24e-4 0.0342,-0.044 2.2374,-2.886897 2.3049,-5.772401 0,-10e-7 0,-2e-6 0,-4e-6 0.068,-2.908092 -2.059,-4.758237 -2.059,-4.758237 0,0 1e-5,2e-6 0,1e-5 -2.5e-4,4.05e-4 -1.60908,2.51712 -1.67708,5.424976 0,0 0,0 0,0"
   inkscape:connector-curvature="0" />
<path
   inkscape:connector-curvature="0"
   d="m 177.28502,39.089293 c -0.068,2.908102 1.43077,5.10618 1.43077,5.10618 0,0 1.4e-4,-1.78e-4 4.1e-4,-5.24e-4 0.0342,-0.044 2.2374,-2.886897 2.3049,-5.772401 0,-10e-7 0,-2e-6 0,-4e-6 0.068,-2.908092 -2.059,-4.758237 -2.059,-4.758237 0,0 1e-5,2e-6 0,10e-6 -2.5e-4,4.05e-4 -1.60908,2.51712 -1.67708,5.424976 0,0 0,0 0,0"
   style="opacity:1;fill:url(#radialGradient1069);fill-opacity:1;stroke:none;stroke-width:0.35325271"
   id="path1067"
   inkscape:transform-center-x="-3.2035864"
   inkscape:transform-center-y="-0.082594737" />
<g
   id="g1079">
  <ellipse
     ry="2.4247279"
     rx="2.5979228"
     cy="42.040874"
     cx="167.70107"
     id="path15528-8"
     style="fill:#003a3a;fill-opacity:1;stroke:#000000;stroke-width:0.50409782" />
  <ellipse
     ry="1.1795181"
     rx="1.2715298"
     cy="41.384533"
     cx="167.22365"
     id="ellipse15532-5"
     style="fill:#ffffff;fill-opacity:1;stroke:#000000;stroke-width:0.24597204" />
  <path
     sodipodi:nodetypes="scscs"
     inkscape:connector-curvature="0"
     id="ellipse15536-4"
     d="m 169.05455,42.736407 c 0.0273,0.461258 -0.22834,1.022875 -1.03332,1.022871 -0.80496,-3e-6 -0.72922,-0.0014 -0.80485,-0.239675 -0.0868,-0.273344 0.32622,-0.141765 0.77222,-0.30494 0.60918,-0.358971 1.03538,-0.995616 1.06595,-0.478256 z"
     style="fill:#ffffff;fill-opacity:1;stroke:#000000;stroke-width:0.29820031" />
</g>
<path
   sodipodi:nodetypes="scscs"
   inkscape:connector-curvature="0"
   id="path1066"
   d="m 171.93045,41.660072 c 0.30199,2.46372 -2.01219,4.494346 -4.49435,4.494342 -2.48216,-1e-6 -4.49434,-2.012186 -4.49434,-4.494342 0,-2.482156 0.57135,-2.775165 3.05351,-2.775166 2.48215,-5e-6 5.89435,2.442091 5.93518,2.775166 z"
   style="fill:url(#linearGradient1074);fill-opacity:1;stroke:#000000;stroke-width:0.55498618" />
<path
   style="fill:url(#linearGradient325548);fill-opacity:1;stroke:#000000;stroke-width:0.40297297px;stroke-linecap:butt;stroke-linejoin:miter;stroke-opacity:1"
   d="m 169.19625,40.469553 c -1.50113,-0.326334 -4.11179,-0.522126 -5.35185,-1.044259 -1.24007,-0.522132 -4.37284,-2.936989 -5.02551,-3.65492 -0.65267,-0.717931 -1.37059,-1.892728 -1.37059,-1.892728 1.225,0.543305 1.80061,0.605436 2.02325,0.130541 -0.84446,-1.975237 -2.06765,-3.818304 -3.32858,-5.678183 2.13364,0.154855 5.08349,5.907508 5.74344,5.939245 0.34437,-1.034781 0.63458,-1.977617 1.24007,-3.132788 0,0 0.58739,2.806455 2.21905,4.177052 1.63166,1.370596 3.65492,2.088529 4.50339,2.41486 1.41484,0.661091 2.47218,2.411246 2.54538,3.328588 0.0653,0.978996 0.45691,1.501123 -0.0652,1.370592 -0.89573,-0.886032 -2.0322,-1.699417 -3.13286,-1.958 z"
   id="path21287-3"
   inkscape:connector-curvature="0"
   sodipodi:nodetypes="czzccccczcccc" />
<path
   style="fill:#ffe23f;fill-opacity:1;stroke:#000000;stroke-width:0.56257695"
   d="m 182.70382,41.75808 c 0,2.516105 -2.03971,4.555811 -4.55581,4.555813 -2.5161,-2e-6 -4.56883,-2.039742 -4.55581,-4.555813 0.002,-0.369627 5.173,-3.15818 5.75129,-3.254808 2.5161,10e-7 3.36033,0.738703 3.36033,3.254808 z"
   id="circle21295-9"
   inkscape:connector-curvature="0"
   sodipodi:nodetypes="scscs" />
<g
   id="g1074">
  <ellipse
     style="fill:#003a3a;fill-opacity:1;stroke:#000000;stroke-width:0.50409782"
     id="ellipse15530-4"
     cx="177.94644"
     cy="42.040874"
     rx="2.5979228"
     ry="2.4247279" />
  <ellipse
     style="fill:#ffffff;stroke:#000000;stroke-width:0.26345888"
     id="ellipse15534-6"
     cx="177.75664"
     cy="41.275433"
     rx="1.3443695"
     ry="1.2798723" />
  <path
     style="fill:#ffffff;fill-opacity:1;stroke:#000000;stroke-width:0.29820031"
     d="m 179.66035,42.801674 c 0.27769,0.399419 -0.75857,1.037999 -1.03331,1.022871 -0.27475,-0.01508 -0.72364,0.01614 -0.80486,-0.239675 -0.0812,-0.255812 0.37516,-0.158081 0.77222,-0.30494 0.39705,-0.146852 0.78825,-0.877677 1.06595,-0.478256 z"
     id="path15534-2"
     inkscape:connector-curvature="0"
     sodipodi:nodetypes="zzzzz" />
</g>
<path
   style="fill:url(#linearGradient1044);fill-opacity:1;stroke:#000000;stroke-width:0.55498618"
   d="m 173.69374,42.188651 c -7.3e-4,2.482159 2.5428,4.216901 5.00661,3.915636 2.46381,-0.301261 4.21689,-2.542789 3.91563,-5.006595 -0.30126,-2.463806 -0.90395,-2.685304 -3.36776,-2.384045 -2.4638,0.301254 -5.55438,3.139435 -5.55448,3.475004 z"
   id="path1042"
   inkscape:connector-curvature="0"
   sodipodi:nodetypes="scscs" />
<path
   sodipodi:nodetypes="czzccccczcccc"
   inkscape:connector-curvature="0"
   id="path21289-3"
   d="m 176.61134,40.469553 c 1.50113,-0.326334 4.11179,-0.522126 5.35185,-1.044259 1.24007,-0.522132 4.37284,-2.936989 5.02551,-3.65492 0.65267,-0.717931 1.37059,-1.892728 1.37059,-1.892728 -1.225,0.543305 -1.80061,0.605436 -2.02324,0.130541 0.84445,-1.975237 2.06764,-3.818304 3.32857,-5.678183 -2.13364,0.154855 -5.08349,5.907508 -5.74344,5.939245 -0.34436,-1.034781 -0.63458,-1.977617 -1.24007,-3.132788 0,0 -0.58739,2.806455 -2.21905,4.177052 -1.63165,1.370596 -3.65491,2.088529 -4.50339,2.41486 -1.41483,0.661091 -2.47218,2.411246 -2.54538,3.328588 -0.0653,0.978996 -0.45691,1.501123 0.0652,1.370592 0.89573,-0.886032 2.0322,-1.699417 3.13286,-1.958 z"
   style="fill:url(#linearGradient325540);fill-opacity:1;stroke:#000000;stroke-width:0.40297297px;stroke-linecap:butt;stroke-linejoin:miter;stroke-opacity:1" />
<path
   sodipodi:nodetypes="czzzzzzzzzzzzzzzzzzzzzc"
   inkscape:connector-curvature="0"
   id="path1000"
   d="m 164.52115,60.458347 c 0,0 2.00302,1.61865 2.60591,3.393747 0.60289,1.775097 0.22853,4.970596 0,6.969302 -0.22853,1.998706 -1.30203,3.69901 -1.15145,4.969415 0.15058,1.270405 0.25211,1.787626 1.15145,2.302899 0.89934,0.515273 3.19133,-1.408285 3.63616,-0.242409 0.44483,1.165876 -3.08752,1.284507 -3.03014,2.363502 0.0574,1.078995 2.0947,0.463683 2.2423,1.39386 0.1476,0.930177 -1.45133,1.459168 -1.93928,2.302899 -0.48795,0.843731 -0.84843,2.424105 -0.96964,2.666515 -0.12121,0.24241 -2.45884,0.464519 -2.72712,1.151451 -0.26828,0.686935 0.78238,0.776925 0.60602,1.333255 -0.17636,0.55633 -1.74698,0.36854 -1.75747,1.03025 -0.0105,0.66171 1.58686,0.17781 1.63627,1.03024 0.0494,0.85243 -2.84272,0.98412 -2.48471,1.99989 0.35801,1.01577 2.21195,-0.0104 3.27254,0 1.06059,0.0104 2.60975,-0.60588 3.09074,0.0606 0.48099,0.66648 0.79912,0.67532 -0.54543,1.75748 -1.34455,1.08216 -6.93246,1.92804 -8.48436,0.72723 -1.5519,-1.20081 -0.62319,-0.10416 -0.54543,-3.21194 0.0778,-3.10778 2.78524,-10.861743 3.33314,-15.029451 0.5479,-4.167708 0.0419,-6.982842 0.42422,-9.817627 0.38233,-2.834785 1.63628,-7.151108 1.63628,-7.151108 z"
   style="fill:url(#linearGradient1004);fill-opacity:1;stroke:none;stroke-width:0.26458335px;stroke-linecap:butt;stroke-linejoin:miter;stroke-opacity:1;filter:url(#filter27055)" />
<g
   id="g962">
  <path
     id="path15598"
     d="m 185.55373,93.028039 -12.3083,1.468128 -8.60516,1.211813 -3.98528,0.09715 -0.49971,1.871204 -6.19239,-0.793234 -5.96346,0.188619 -4.76973,3.500561 c 1.13192,0.89172 -1.58645,2.46885 -1.25471,4.27829 0.33381,1.82072 2.32014,4.06178 3.97754,5.31337 1.6574,1.25159 3.74989,1.40768 5.43997,2.08101 0.69376,0.27639 1.59664,0.49312 2.43397,0.71107 -1.15531,-0.49461 -2.49147,-0.99717 -3.59668,-1.28519 -2.18676,-0.56987 -0.8283,-5.04664 -0.29094,-6.3991 0.53736,-1.35246 0.19959,-0.53612 1.67173,-1.61747 1.47214,-1.08134 5.41338,-3.47606 7.58455,-4.124811 2.17117,-0.648739 3.13156,-0.788035 4.94543,-0.409276 1.81387,0.378759 3.45799,2.168717 5.4188,2.920237 1.9608,0.75152 4.60637,-0.50988 6.26266,1.51722 1.65629,2.02709 1.4916,8.56708 0.34262,9.25628 -0.0757,0.0454 -0.16781,0.0922 -0.27079,0.14004 0.27707,-0.0555 0.44007,-0.0738 0.44235,-0.0346 0.88152,-0.92104 2.6736,-0.66758 3.97289,-1.3255 1.29929,-0.65792 1.80749,-1.46956 3.71553,-2.62671 1.90804,-1.15715 5.248,-3.47041 7.8605,-4.04162 2.6125,-0.57121 4.91924,0.0816 7.19957,0.31988 2.28033,0.23823 4.09017,1.61928 5.85611,2.2802 1.7904,-0.46542 2.98073,-4.87839 3.93037,-7.09386 -5.10179,-1.802894 -5.44451,-2.155377 -7.47086,-3.305224 -2.03921,-1.157129 -2.76401,-2.851309 -4.73718,-3.356901 -1.97318,-0.505579 -4.66152,0.879647 -6.37326,0.735356 -1.71174,-0.144321 -2.74106,-0.408764 -3.7362,-1.086775 -0.50372,-0.343191 -0.74536,-0.202401 -0.99994,-0.390157 z"
     style="fill:#000000;fill-opacity:1;stroke:#000000;stroke-width:0.26458332;stroke-miterlimit:4;stroke-dasharray:none;stroke-opacity:1"
     inkscape:connector-curvature="0"
     sodipodi:nodetypes="ccccccccscccssscssscccssccccccccc" />
  <path
     style="fill:url(#linearGradient864-6);fill-opacity:1;stroke:none;stroke-width:0.26458332"
     d="m 176.33637,112.91924 c 0.88152,-0.92104 2.67339,-0.66742 3.97267,-1.32534 1.29929,-0.65792 1.80733,-1.46987 3.71537,-2.62702 1.90804,-1.15715 5.24828,-3.46996 7.86078,-4.04117 2.6125,-0.57121 4.91917,0.0812 7.1995,0.31947 2.28033,0.23823 4.71007,1.76525 6.46213,1.06837 2.66713,-1.06086 2.24967,-5.6997 3.46801,-5.93766 0,0 1.91002,2.40617 1.92029,3.74759 0.007,0.95935 0.20484,4.20925 -0.72805,5.44317 -1.28613,1.70112 -3.90197,1.37178 -4.72566,2.20797 -1.42117,1.44273 -4.92183,2.11366 -8.25226,3.22302 -3.33042,1.10936 -7.66323,2.38142 -11.25698,3.13342 -3.59376,0.752 -8.44282,2.86064 -10.24182,1.45447 -1.799,-1.40617 -0.44394,-2.20598 -0.34448,-3.3378 0.0995,-1.13182 0.069,-2.40745 0.9505,-3.32849 z"
     id="rect51"
     inkscape:connector-curvature="0"
     sodipodi:nodetypes="zzzzzssssszzzzz" />
  <path
     style="fill:url(#linearGradient872);fill-opacity:1;stroke:none;stroke-width:0.26458332"
     d="m 159.19508,99.529426 c 2.17117,-0.64874 3.13165,-0.78825 4.94552,-0.409488 1.81387,0.378759 3.45782,2.168872 5.41863,2.920392 1.9608,0.75152 4.60634,-0.50986 6.26262,1.51724 1.6563,2.02709 1.4918,8.56693 0.34283,9.25613 -1.14898,0.6892 -5.62319,1.69212 -7.92265,1.94609 -2.29946,0.25397 -4.19556,0.33389 -5.72127,-0.11941 -1.52571,-0.4533 -2.14868,-1.41178 -3.34377,-1.4554 -1.19509,-0.0436 -2.0746,1.51342 -2.86935,0.99028 -0.79475,-0.52314 -3.79648,-1.5565 -5.98324,-2.12637 -2.18676,-0.56987 -1.65006,-3.97031 -1.1127,-5.32277 0.53736,-1.35246 0.15524,-1.64776 1.62738,-2.72911 1.47214,-1.08134 6.18482,-3.81884 8.356,-4.467584 z"
     id="rect39"
     inkscape:connector-curvature="0"
     sodipodi:nodetypes="zzzzzzzzzzzzz" />
  <path
     style="fill:url(#linearGradient153975);fill-opacity:1;stroke:none;stroke-width:0.26458332"
     d="m 156.21629,114.07069 c 1.16128,-0.33226 2.13632,-1.51376 3.33946,-1.40672 1.19191,0.10605 1.8443,1.6869 3.01032,1.95579 4.50668,1.03928 13.75251,-2.00591 13.7703,-1.70052 0,0 -0.81833,2.35517 -0.75772,3.39552 0.0606,1.04034 1.6883,3.60251 1.6883,3.60251 0.029,0.49745 -6.29963,0.48735 -9.5918,0.58478 -2.68709,0.0795 -5.36283,-0.45468 -8.05103,-0.47061 -5.0896,-0.0301 -15.25253,0.71032 -15.25253,0.71032 -0.67505,-0.22006 -0.76434,-1.40017 -0.51802,-2.06609 0.30816,-0.83309 1.29313,-1.07112 2.07197,-1.57305 0.93615,-0.6033 1.72695,-1.41633 2.71542,-1.81988 2.36752,-0.96656 5.11675,-0.50861 7.57533,-1.21205 z"
     id="rect48"
     inkscape:connector-curvature="0"
     sodipodi:nodetypes="sssszssssssss" />
  <path
     style="opacity:1;fill:#000000;stroke:none;stroke-width:0.26458332;stroke-miterlimit:4;stroke-dasharray:none;stroke-opacity:1"
     d="m 165.66849,53.420631 c -0.49635,0.128048 -0.58505,0.971767 -0.91895,1.233051 -2.40275,1.880214 -7.42626,3.505769 -10.7267,7.788627 -3.30045,4.282858 -3.22021,13.018937 -5.13871,17.467667 -1.10742,2.567959 -3.41202,3.364484 -4.32067,4.953185 -0.66549,1.163566 -1.16632,4.055597 -1.40973,4.963007 -0.1492,0.55621 -5.73432,3.790294 -6.49211,3.894336 -3.96314,0.544158 -7.0125,1.044096 -7.25692,1.753896 -0.49483,1.436971 -0.86378,0.150188 -1.26349,0.969968 -0.39971,0.81978 -0.26679,3.065373 0.0336,3.878832 0.30038,0.81347 -0.16475,0.49177 0.85163,1.01389 1.01638,0.52214 3.77037,0.15336 5.51542,0.42582 1.18028,0.18428 2.30451,0.77217 3.39153,1.05316 l 3.48299,-1.43195 c 0.46693,-0.53483 0.90437,-1.00042 1.35599,-0.99271 0.14381,0.002 0.28925,0.0527 0.4377,0.16382 0.007,0.006 0.0126,0.0115 0.0196,0.017 l 4.76973,-3.500564 5.96346,-0.188619 c 0,0 4.57761,2.10588 6.19239,0.793234 4.94334,-4.018421 5.41485,-17.472655 6.60321,-24.731308 1.18836,-7.258653 1.73811,-14.376454 1.17874,-18.496544 -0.11169,-0.82268 -1.4648,-1.235227 -2.26871,-1.027838 z m -8.90112,35.062464 c 0.43659,0.03501 0.772,1.159336 0.71365,2.390037 -0.0718,1.5147 -2.52608,4.066114 -3.34243,5.742284 -0.33429,0.686401 -2.91403,-0.256831 -2.91403,-0.256831 -0.52704,-0.812811 1.85544,-2.143694 3.18585,-3.774964 1.47205,-1.804929 2.04225,-3.938778 2.04225,-3.938778 0.10794,-0.120052 0.21396,-0.169825 0.31471,-0.161748 z m -25.79067,7.896678 c 0.89934,-1.1e-5 0.8785,0.237016 0.8785,0.899686 0,0.34104 -0.34316,0.09216 -0.65319,0.310576 -0.29238,0.206029 0.0825,0.84646 -0.35399,0.84646 -0.89933,-10e-6 -0.94258,-0.215831 -0.94258,-0.878501 0,-0.66267 0.17192,-1.178221 1.07126,-1.178221 z"
     id="path4643"
     inkscape:connector-curvature="0"
     sodipodi:nodetypes="ccsccscccccscccccccszsacccccccccccscc" />
  <path
     sodipodi:nodetypes="ccsccscccccscccccccszsacccccccccccscc"
     inkscape:connector-curvature="0"
     id="path990"
     d="m 165.66849,53.420631 c -0.49635,0.128048 -1.01739,1.84811 -1.35129,2.109394 -2.40275,1.880214 -7.15911,1.910909 -10.45955,6.193767 -3.30045,4.282858 -3.05502,13.737454 -4.97352,18.186184 -1.10742,2.567959 -3.41202,3.364484 -4.32067,4.953185 -0.66549,1.163566 -1.16632,4.055597 -1.40973,4.963007 -0.1492,0.55621 -5.73432,3.790294 -6.49211,3.894336 -3.96314,0.544158 -7.0125,1.044096 -7.25692,1.753896 -0.49483,1.436971 -0.86378,0.150188 -1.26349,0.969968 -0.39971,0.81978 -0.26679,3.065373 0.0336,3.878832 0.30038,0.81347 -0.16475,0.49177 0.85163,1.01389 1.01638,0.52214 3.77037,0.15336 5.51542,0.42582 1.18028,0.18428 2.30451,0.77217 3.39153,1.05316 l 3.48299,-1.43195 c 0.46693,-0.53483 0.90437,-1.00042 1.35599,-0.99271 0.14381,0.002 0.28925,0.0527 0.4377,0.16382 0.007,0.006 0.0126,0.0115 0.0196,0.017 l 4.76973,-3.500564 5.96346,-0.188619 c 0,0 4.5228,2.035413 6.19239,0.793234 4.73085,-3.519759 4.02389,-22.366557 5.21225,-29.62521 1.18836,-7.258653 3.32681,-10.223176 2.5697,-13.602642 -0.1815,-0.810145 -1.4648,-1.235227 -2.26871,-1.027838 z m -8.90112,35.062464 c 0.43659,0.03501 0.772,1.159336 0.71365,2.390037 -0.0718,1.5147 -2.52608,4.066114 -3.34243,5.742284 -0.33429,0.686401 -2.91403,-0.256831 -2.91403,-0.256831 -0.52704,-0.812811 1.85544,-2.143694 3.18585,-3.774964 1.47205,-1.804929 2.04225,-3.938778 2.04225,-3.938778 0.10794,-0.120052 0.21396,-0.169825 0.31471,-0.161748 z m -25.79067,7.896678 c 0.89934,-1.1e-5 0.8785,0.237016 0.8785,0.899686 0,0.34104 -0.34316,0.09216 -0.65319,0.310576 -0.29238,0.206029 0.0825,0.84646 -0.35399,0.84646 -0.89933,-10e-6 -0.94258,-0.215831 -0.94258,-0.878501 0,-0.66267 0.17192,-1.178221 1.07126,-1.178221 z"
     style="opacity:0.01;fill:#000000;stroke:none;stroke-width:0.26458332;stroke-miterlimit:4;stroke-dasharray:none;stroke-opacity:1" />
</g>
<path
   id="path12772"
   style="opacity:0.023;fill:url(#radialGradient1032);fill-opacity:1;stroke:none;stroke-width:0.57512265"
   d="m 139.51082,48.523251 c 3.36096,4.130434 3.73423,8.144542 3.73423,8.144542 0,0 -3.8e-4,-1.68e-4 -0.001,-5.3e-4 -0.0973,-0.04368 -6.3698,-2.851588 -9.70464,-6.949941 0,-1e-6 0,-1e-6 -1e-5,-2e-6 -3.36091,-4.130448 -2.46527,-8.007201 -2.46527,-8.007201 0,0 0,1e-6 1e-5,1.5e-5 8.3e-4,4.15e-4 5.07619,2.682993 8.43685,6.813098 0,0 0,0 0,0"
   inkscape:connector-curvature="0" />
<path
   inkscape:connector-curvature="0"
   d="m 139.51082,48.523251 c 3.36096,4.130434 3.73423,8.144542 3.73423,8.144542 0,0 -3.8e-4,-1.68e-4 -0.001,-5.3e-4 -0.0973,-0.04368 -6.3698,-2.851588 -9.70464,-6.949941 0,-1e-6 0,-1e-6 -1e-5,-2e-6 -3.36091,-4.130448 -2.46527,-8.007201 -2.46527,-8.007201 0,0 0,1e-6 1e-5,1.5e-5 8.3e-4,4.15e-4 5.07619,2.682993 8.43685,6.813098 0,0 0,0 0,0"
   style="opacity:0.013;fill:url(#radialGradient12774);fill-opacity:1;stroke:none;stroke-width:0.57512265"
   id="path950" />
<path
   id="path952"
   style="opacity:0.017;fill:url(#radialGradient12637);fill-opacity:1;stroke:none;stroke-width:0.56625879"
   d="m 211.75062,49.275171 c -3.34148,4.112415 -7.84951,6.193822 -7.84951,6.193822 0,0 4e-5,-3.33e-4 1.4e-4,-8.94e-4 0.008,-0.08435 0.5423,-5.519899 3.85782,-9.600356 0,-10e-7 0,-3e-6 1e-5,-4e-6 3.3415,-4.11239 8.24266,-5.291016 8.24266,-5.291016 0,0 0,2e-6 -1e-5,1.5e-5 -1.4e-4,7.43e-4 -0.90984,4.586478 -4.25106,8.698543 0,0 0,0 0,0"
   inkscape:connector-curvature="0" />
<path
   style="fill:#ffe23f;stroke:#000000;stroke-width:0.55498618"
   id="path145" />





0
       d=&quot;m 172.06919,41.823349 a 4.4943423,4.4943423 0 0 1 -4.49435,4.494342 4.4943423,4.4943423 0 0 1 -4.49434,-4.494342 4.4943423,4.4943423 0 0 1 4.49434,-4.494342 4.4943423,4.4943423 0 0 1 4.49435,4.494342 z&quot;
       id=&quot;powieka&quot; /&gt;
  <path
   sodipodi:nodetypes="zzssczzzzzzz"
   inkscape:connector-curvature="0"
   id="rect42"
   d="m 175.30763,102.78622 c 2.24554,-1.6662 3.94032,0.47717 5.20849,-0.36473 1.26815,-0.84191 -0.27966,-2.25097 1.7666,-3.490213 1.2486,-0.756171 3.90943,-2.656361 7.04258,-3.41525 2.0016,-0.48482 4.09449,0.260549 6.46584,0.156681 0,0 2.30937,-0.911521 2.91397,0.171408 0.60461,1.082932 0.74054,2.168202 -0.0505,3.65492 -0.79105,1.486724 -1.83703,1.582004 -4.40911,3.290114 -2.57208,1.7081 -9.13592,4.92622 -11.22833,6.5996 -2.0924,1.67337 -0.11065,0.57225 -2.00083,1.62634 -1.89018,1.05409 -5.10662,2.90218 -7.42281,0.17022 -2.3162,-2.73196 -0.53144,-6.73289 1.7141,-8.39909 z"
   style="fill:url(#linearGradient153967);fill-opacity:1;stroke:none;stroke-width:0.26458332" />
<g
   id="g993"
   transform="translate(112.04136,-47.695673)">
  <g
     transform="translate(-10.221542,8.1208913)"
     id="g1090">
    <ellipse
       ry="1.4268698"
       rx="0.77601695"
       transform="matrix(0.91521698,0.4029614,0.41786082,0.90851105,0,0)"
       cy="-92.184937"
       cx="326.63739"
       id="ellipse1085"
       style="opacity:1;fill:#cccccc;fill-opacity:1;stroke:none;stroke-width:0.3091189" />
    <ellipse
       style="opacity:1;fill:#000000;fill-opacity:1;stroke:none;stroke-width:0.09928294"
       id="path1081"
       cx="257.43414"
       cy="64.638268"
       transform="rotate(-3.4855926)"
       rx="1.9722611"
       ry="0.82018059" />
    <ellipse
       style="opacity:1;fill:#cccccc;fill-opacity:1;stroke:none;stroke-width:0.3091189"
       id="path1083"
       cx="281.0983"
       cy="-400.00925"
       transform="matrix(-0.24680326,0.96906561,-0.82732947,0.56171696,0,0)"
       rx="0.77601695"
       ry="1.4268698" />
  </g>
  <g
     transform="translate(-0.03024526,0.00184224)"
     id="g1110">
    <g
       transform="translate(11.572707,30.438295)"
       id="g1098">
      <g
         id="g1103"
         transform="translate(-21.870921,-22.151793)">
        <ellipse
           style="opacity:1;fill:#cccccc;fill-opacity:1;stroke:none;stroke-width:0.3091189"
           id="ellipse1092"
           cx="399.03397"
           cy="-322.24615"
           transform="matrix(0.43950837,0.8982385,-0.26664019,0.96379615,0,0)"
           rx="0.77601695"
           ry="1.4268698" />
        <ellipse
           ry="0.82018059"
           rx="1.9722611"
           transform="rotate(-3.4855926)"
           cy="64.638268"
           cx="257.43414"
           id="ellipse1094"
           style="opacity:1;fill:#000000;fill-opacity:1;stroke:none;stroke-width:0.09928294" />
        <ellipse
           ry="1.4268698"
           rx="0.77601695"
           transform="matrix(0.66742734,0.74467492,0.00579204,0.99998323,0,0)"
           cy="-245.26898"
           cx="392.80139"
           id="ellipse1096"
           style="opacity:1;fill:#cccccc;fill-opacity:1;stroke:none;stroke-width:0.3091189" />
      </g>
    </g>
  </g>
</g>
<path
   style="opacity:0.74800002;fill:url(#radialGradient1016);fill-opacity:1;stroke:none;stroke-width:0.38513064"
   d="M 242.29725,87.339777 A 66.618263,66.618263 0 0 1 163.02247,138.2465 66.618263,66.618263 0 0 1 112.11575,58.97171 66.618263,66.618263 0 0 1 191.39054,8.0649913 66.618263,66.618263 0 0 1 242.29725,87.339777 Z"
   id="path995"
   inkscape:connector-curvature="0" />
<path
   style="opacity:1;fill:#ffffff;fill-opacity:1;stroke:none;stroke-width:0.26458335"
   d="m 156.82789,88.488623 c -0.10075,-0.008 -0.37408,0.03701 -0.43205,0.229919 1e-5,1e-5 -0.57017,2.13353 -2.04222,3.93846 -1.33041,1.63127 -3.71303,2.96233 -3.18599,3.77514 0,0 2.73806,0.871843 3.09983,0.138223 0.81635,-1.67616 3.14627,-4.097395 3.21807,-5.612095 0.0584,-1.2307 -0.22105,-2.434637 -0.65764,-2.469647 z"
   id="path1209"
   inkscape:connector-curvature="0"
   sodipodi:nodetypes="ccccccc" />
<path
   style="opacity:1;fill:#ffffff;fill-opacity:1;stroke:none;stroke-width:0.27575648"
   d="m 130.99015,96.383465 c -0.92845,-0.0011 -1.10541,0.541295 -1.10461,1.238544 6.9e-4,0.697248 0.0461,0.924498 0.97456,0.925599 0.45061,5.44e-4 0.0627,-0.673585 0.36425,-0.890012 0.3198,-0.229442 0.67427,0.03288 0.67385,-0.325963 -7e-4,-0.697253 0.0204,-0.947092 -0.90805,-0.948168 z"
   id="rect1230"
   inkscape:connector-curvature="0" />
<path
   sodipodi:nodetypes="zzzzzzzzzzzzzz"
   inkscape:connector-curvature="0"
   id="path1006"
   d="m 181.61654,65.243229 c -1.32719,0.761588 -0.0675,2.87141 -0.48482,3.93917 -0.4173,1.06776 2.87427,4.063801 2.58653,5.021972 -0.28774,0.958171 0.33675,2.069195 0.1212,3.090735 -0.21555,1.02154 -1.29969,1.559812 -1.39386,2.848325 -0.0942,1.288513 0.97315,2.222396 0.82847,3.539185 -0.14468,1.316789 -2.19416,1.830743 -1.69687,2.908927 0.49729,1.078182 3.18456,-0.590601 3.69676,0.666629 0.5122,1.257233 -2.97241,2.135163 -2.54531,3.575553 0.4271,1.44039 2.7815,1.50092 4.30278,1.69688 1.52128,0.19596 2.78557,0.83987 4.5452,-0.54543 1.75963,-1.3853 2.98334,-4.28775 3.09073,-8.302559 0.10739,-4.014807 -4.18157,-14.241617 -4.54519,-14.54463 -0.36362,-0.303013 -7.17843,-4.656345 -8.50562,-3.894757 z"
   style="opacity:0.98299997;fill:url(#linearGradient1010);fill-opacity:1;stroke:#000000;stroke-width:0.26458335px;stroke-linecap:butt;stroke-linejoin:miter;stroke-opacity:1;filter:url(#filter27019)" />
<path
   sodipodi:nodetypes="sssssssssszssssssssssss"
   inkscape:connector-curvature="0"
   id="path994"
   d="m 199.32403,81.657242 c 1.45068,4.08128 7.3942,9.28835 10.88758,9.5102 0.7704,0.0489 0.83364,-0.82029 1.33913,-0.35348 0.97609,0.90141 2.97166,1.33484 7.67758,1.23646 1.14448,-0.0239 1.03536,0.3479 1.54353,0.93559 0.59096,0.68345 -0.57987,1.0973 -0.26351,1.81027 0.16657,0.37537 1.11927,0.19948 1.55113,0.39952 0.53873,0.24953 0.29643,0.39316 0.44027,1.11103 0.44927,2.24213 0.91459,0.12692 1.74578,0.15831 1.58877,0.06 -0.77742,4.653918 -2.48754,4.298038 -1.24522,-0.25913 -1.32168,-0.804628 -4.11405,-0.30447 -2.79236,0.50015 -9.44049,0.44974 -9.44049,0.44974 -7.25014,-2.361768 -10.91481,-6.263398 -11.81651,-6.603128 -2.12757,-0.80158 -8.10135,2.59781 -11.2977,-0.73633 -3.32289,-3.46613 0.10103,-14.237792 -0.92683,-18.990483 -0.48999,-2.265672 -2.78215,-5.400317 -3.27394,-6.135271 -0.64871,-0.969438 -3.87558,-6.977943 -3.30992,-7.959691 0,0 0.60479,-1.305566 0.42061,-1.391385 -0.56133,-0.261549 -0.9318,-0.423073 -1.43501,-0.961929 -0.76657,-0.820869 4.77695,-4.916324 4.67285,-4.085782 -0.1283,1.023688 -0.31866,2.155613 0.57726,2.712875 2.90848,1.809087 7.6212,2.138183 10.60286,5.004996 4.2976,4.132052 5.98685,17.306459 6.90692,19.89492 z"
   style="opacity:1;fill:#000000;fill-opacity:1;stroke:none;stroke-width:0.26458335" />
<path
   style="opacity:0.023;fill:#000000;fill-opacity:1;stroke:none;stroke-width:0.26458335"
   d="m 199.32403,81.657242 c 1.45068,4.08128 7.3942,9.28835 10.88758,9.5102 0.7704,0.0489 0.83364,-0.82029 1.33913,-0.35348 0.97609,0.90141 2.97166,1.33484 7.67758,1.23646 1.14448,-0.0239 1.03536,0.3479 1.54353,0.93559 0.59096,0.68345 -0.57987,1.0973 -0.26351,1.81027 0.16657,0.37537 1.11927,0.19948 1.55113,0.39952 0.53873,0.24953 0.29643,0.39316 0.44027,1.11103 0.44927,2.24213 0.91459,0.12692 1.74578,0.15831 1.58877,0.06 -0.77742,4.653918 -2.48754,4.298038 -1.24522,-0.25913 -1.32168,-0.804628 -4.11405,-0.30447 -2.79236,0.50015 -9.44049,0.44974 -9.44049,0.44974 -7.25014,-2.361768 -10.91481,-6.263398 -11.81651,-6.603128 -2.12757,-0.80158 -7.58807,2.566546 -10.78442,-0.767594 -3.32289,-3.46613 0.63819,-12.467368 -0.38967,-17.220059 -0.48999,-2.265672 -1.05361,-6.94799 -3.05985,-9.668732 -2.0018,-2.714718 -4.34717,-6.262307 -3.78151,-7.244055 0,0 0.60479,-1.305566 0.42061,-1.391385 -0.56133,-0.261549 -0.9318,-0.423073 -1.43501,-0.961929 -0.76657,-0.820869 3.98401,-3.837659 3.87991,-3.007117 -0.1283,1.023688 -0.31866,2.155613 0.57726,2.712875 2.90848,1.809087 9.47196,1.510269 12.45362,4.377082 4.2976,4.132052 4.13609,17.934373 5.05616,20.522834 z"
   id="path1016"
   inkscape:connector-curvature="0"
   sodipodi:nodetypes="sssssssssszssssssssssss" />
<path
   sodipodi:nodetypes="zzzzzzzzzzz"
   inkscape:connector-curvature="0"
   id="path1019"
   d="m 170.53574,82.044076 c 1.18883,-0.05667 4.36338,-1.151448 4.6664,-1.515065 0.30302,-0.363617 3.28285,-1.200815 4.36339,-1.757477 1.08054,-0.556662 1.7543,-0.997357 2.1817,-1.393859 0.4274,-0.396502 0.8609,-0.234166 0.54542,-0.727231 -0.31548,-0.493065 -1.54473,0.315392 -2.54531,0.545422 -1.00058,0.23003 -2.06627,0.444519 -3.45435,0.848437 -1.38808,0.403918 -3.61832,1.194648 -4.84821,1.636271 -1.22989,0.441623 -2.06182,0.564732 -2.54531,0.969642 -0.48349,0.40491 -0.76224,0.404482 -0.54542,0.90904 0.21682,0.504558 0.99286,0.541493 2.18169,0.48482 z"
   style="opacity:0.77300002;fill:#4d4d4d;stroke:none;stroke-width:0.26458335px;stroke-linecap:butt;stroke-linejoin:miter;stroke-opacity:1;filter:url(#filter27187)"
   transform="matrix(1.066336,0.00157931,0.00157931,1.0921683,-13.470112,-6.8375122)" />
<path
   sodipodi:nodetypes="zzzzzzzzzz"
   inkscape:connector-curvature="0"
   id="path1021"
   d="m 168.65332,77.230338 c 1.54537,-0.333315 3.79195,-1.674784 5.63605,-1.939284 1.8441,-0.2645 4.20841,0.830775 5.21182,0.242411 1.00341,-0.588364 1.18115,-0.939274 0.78784,-1.575671 -0.39331,-0.636397 -2.48471,0 -2.72712,0 -0.24241,0 -3.75735,-0.181804 -4.90881,-0.121203 -1.15146,0.0606 -3.69677,1.090845 -3.99978,1.212051 -0.30301,0.121206 -2.10637,0.410603 -2.06049,1.151451 0.0459,0.740848 1.39387,0.787834 1.93929,0.787834 0.54543,0 -1.42417,0.575726 0.1212,0.242411 z"
   style="opacity:0.6520004;fill:#333333;stroke:none;stroke-width:0.26458335px;stroke-linecap:butt;stroke-linejoin:miter;stroke-opacity:1;filter:url(#filter27175)"
   transform="matrix(1.1745371,-0.0095236,-0.0095236,1.0187625,-29.498646,-0.71277782)" />
</g>
</svg>
