<?xml version="1.0" encoding="UTF-8" standalone="no"?>
<!-- Created with Inkscape (http://www.inkscape.org/) -->

<svg
   xmlns:dc="http://purl.org/dc/elements/1.1/"
   xmlns:cc="http://creativecommons.org/ns#"
   xmlns:rdf="http://www.w3.org/1999/02/22-rdf-syntax-ns#"
   xmlns:svg="http://www.w3.org/2000/svg"
   xmlns="http://www.w3.org/2000/svg"
   xmlns:xlink="http://www.w3.org/1999/xlink"
   xmlns:sodipodi="http://sodipodi.sourceforge.net/DTD/sodipodi-0.dtd"
   xmlns:inkscape="http://www.inkscape.org/namespaces/inkscape"
   width="100.5143mm"
   height="70.553146mm"
   viewBox="0 0 100.5143 70.553147"
   version="1.1"
   id="svg160989"
   inkscape:version="0.92.3 (3ce5693, 2018-03-11)"
   sodipodi:docname="tlow1.svg">
  <defs
     id="defs160983">
    <linearGradient
       inkscape:collect="always"
       id="linearGradient870">
      <stop
         style="stop-color:#a05a2c;stop-opacity:1;"
         offset="0"
         id="stop866" />
      <stop
         style="stop-color:#552200;stop-opacity:1"
         offset="1"
         id="stop868" />
    </linearGradient>
    <linearGradient
       gradientTransform="translate(-158.44844,-2.0665611)"
       inkscape:collect="always"
       xlink:href="#linearGradient870"
       id="linearGradient864"
       x1="190.27492"
       y1="118.19442"
       x2="194.37543"
       y2="126.5078"
       gradientUnits="userSpaceOnUse" />
    <linearGradient
       gradientUnits="userSpaceOnUse"
       y2="92.273407"
       x2="186.851"
       y1="92.637024"
       x1="178.02519"
       id="linearGradient26945"
       xlink:href="#linearGradient26943"
       inkscape:collect="always"
       gradientTransform="translate(-217.05795,-34.455977)" />
    <linearGradient
       id="linearGradient26943"
       inkscape:collect="always">
      <stop
         id="stop26939"
         offset="0"
         style="stop-color:#c8b7b7;stop-opacity:1" />
      <stop
         id="stop26941"
         offset="1"
         style="stop-color:#000000;stop-opacity:1" />
    </linearGradient>
    <filter
       height="1.1809789"
       y="-0.090489432"
       width="1.3561474"
       x="-0.1780737"
       id="filter27019"
       style="color-interpolation-filters:sRGB"
       inkscape:collect="always">
      <feGaussianBlur
         id="feGaussianBlur27021"
         stdDeviation="0.97716135"
         inkscape:collect="always" />
    </filter>
    <filter
       height="1.7297137"
       y="-0.36485684"
       width="1.1558176"
       x="-0.077908784"
       id="filter27199"
       style="color-interpolation-filters:sRGB"
       inkscape:collect="always">
      <feGaussianBlur
         id="feGaussianBlur27201"
         stdDeviation="0.52265555"
         inkscape:collect="always" />
    </filter>
    <filter
       height="1.5514932"
       y="-0.27574661"
       width="1.2175333"
       x="-0.10876665"
       id="filter27187"
       style="color-interpolation-filters:sRGB"
       inkscape:collect="always">
      <feGaussianBlur
         id="feGaussianBlur27189"
         stdDeviation="0.63996888"
         inkscape:collect="always" />
    </filter>
    <filter
       height="2.346751"
       y="-0.67337549"
       width="1.3547702"
       x="-0.17738511"
       id="filter27175"
       style="color-interpolation-filters:sRGB"
       inkscape:collect="always">
      <feGaussianBlur
         id="feGaussianBlur27177"
         stdDeviation="1.0266808"
         inkscape:collect="always" />
    </filter>
    <linearGradient
       gradientTransform="translate(-217.05795,-34.455977)"
       inkscape:collect="always"
       xlink:href="#linearGradient153965"
       id="linearGradient153975"
       x1="153.97563"
       y1="124.32774"
       x2="157.88109"
       y2="133.53934"
       gradientUnits="userSpaceOnUse" />
    <linearGradient
       inkscape:collect="always"
       id="linearGradient153965">
      <stop
         style="stop-color:#2d0074;stop-opacity:1"
         offset="0"
         id="stop153961" />
      <stop
         style="stop-color:#06000f;stop-opacity:1"
         offset="1"
         id="stop153963" />
    </linearGradient>
    <linearGradient
       gradientTransform="translate(-217.05795,-34.455977)"
       inkscape:collect="always"
       xlink:href="#linearGradient870"
       id="linearGradient872"
       x1="159.7381"
       y1="114.74604"
       x2="157.42566"
       y2="123.65937"
       gradientUnits="userSpaceOnUse" />
    <linearGradient
       gradientTransform="translate(-217.05795,-34.455977)"
       inkscape:collect="always"
       xlink:href="#linearGradient870"
       id="linearGradient864-6"
       x1="190.27492"
       y1="118.19442"
       x2="194.37543"
       y2="126.5078"
       gradientUnits="userSpaceOnUse" />
    <linearGradient
       gradientTransform="translate(-217.05795,-34.455977)"
       inkscape:collect="always"
       xlink:href="#linearGradient153965"
       id="linearGradient153967"
       x1="185.18259"
       y1="109.16479"
       x2="188.62166"
       y2="116.92193"
       gradientUnits="userSpaceOnUse" />
    <linearGradient
       gradientUnits="userSpaceOnUse"
       y2="91.902206"
       x2="168.39485"
       y1="91.538589"
       x1="159.76387"
       id="linearGradient27065"
       xlink:href="#linearGradient27063"
       inkscape:collect="always"
       gradientTransform="translate(-217.05795,-34.455977)" />
    <linearGradient
       id="linearGradient27063"
       inkscape:collect="always">
      <stop
         id="stop27059"
         offset="0"
         style="stop-color:#000000;stop-opacity:1" />
      <stop
         id="stop27061"
         offset="1"
         style="stop-color:#c8b7b7;stop-opacity:1" />
    </linearGradient>
    <filter
       height="1.1186197"
       y="-0.059309874"
       width="1.3532369"
       x="-0.17661844"
       id="filter27055"
       style="color-interpolation-filters:sRGB"
       inkscape:collect="always">
      <feGaussianBlur
         id="feGaussianBlur27057"
         stdDeviation="0.88461893"
         inkscape:collect="always" />
    </filter>
  </defs>
  <sodipodi:namedview
     id="base"
     pagecolor="#ffffff"
     bordercolor="#666666"
     borderopacity="1.0"
     inkscape:pageopacity="0.0"
     inkscape:pageshadow="2"
     inkscape:zoom="1.4"
     inkscape:cx="160.12117"
     inkscape:cy="108.03218"
     inkscape:document-units="mm"
     inkscape:current-layer="layer1"
     showgrid="false"
     fit-margin-top="0"
     fit-margin-left="0"
     fit-margin-right="0"
     fit-margin-bottom="0"
     inkscape:window-width="1301"
     inkscape:window-height="744"
     inkscape:window-x="65"
     inkscape:window-y="24"
     inkscape:window-maximized="1"
     showguides="true"
     inkscape:snap-global="false"
     inkscape:guide-bbox="true">
    <sodipodi:guide
       position="34.745038,94.346144"
       orientation="0,1"
       id="guide139879"
       inkscape:locked="false" />
  </sodipodi:namedview>
  <metadata
     id="metadata160986">
    <rdf:RDF>
      <cc:Work
         rdf:about="">
        <dc:format>image/svg+xml</dc:format>
        <dc:type
           rdf:resource="http://purl.org/dc/dcmitype/StillImage" />
        <dc:title></dc:title>
      </cc:Work>
    </rdf:RDF>
  </metadata>
  <g
     inkscape:label="Layer 1"
     inkscape:groupmode="layer"
     id="layer1"
     transform="translate(92.613065,-28.817496)">
    <path
       inkscape:connector-curvature="0"
       id="path26937"
       d="m -52.218804,35.790621 5.939049,3.643292 5.433441,-1.395646 3.535749,-1.762827 4.605801,8.605573 1.69687,19.029224 -1.09084,6.302674 -13.21137,1.575671 -8.605581,1.212048 -4.969409,0.121211 0.969639,-11.756914 3.393752,-18.301993 z"
       style="fill:#c8b7b7;stroke:#000000;stroke-width:0.26458332px;stroke-linecap:butt;stroke-linejoin:miter;stroke-opacity:1"
       sodipodi:nodetypes="ccccccccccccc" />
    <path
       inkscape:connector-curvature="0"
       id="path15584"
       d="m -9.3936229,77.864299 c 0.299688,0.392192 1.286169,1.730883 1.6474437,2.879926 -0.4233857,-1.906003 -1.2619197,-2.636938 -1.6474437,-2.879926 z"
       style="fill:#451907;fill-opacity:1;stroke:#ffff00;stroke-width:0.26458332;stroke-miterlimit:4;stroke-dasharray:none;stroke-opacity:1" />
    <path
       inkscape:connector-curvature="0"
       id="path15570"
       d="m -7.6206052,81.416017 c 0.0044,0.61105 0.08504,2.15054 -0.09715,3.50728 0.05662,-0.23914 0.105413,-0.4836 0.140044,-0.73639 0.01577,-0.11517 0.02865,-0.2317 0.03979,-0.34933 0.0024,-0.0242 0.0051,-0.0481 0.0072,-0.0724 1.93e-4,-0.002 2.65e-4,-0.004 5.29e-4,-0.007 0.0089,-0.10371 0.0154,-0.20829 0.02066,-0.31367 0.0019,-0.0375 0.0038,-0.075 0.0052,-0.11266 0.0039,-0.10375 0.0063,-0.20801 0.0067,-0.31316 1.56e-4,-0.0383 -2.09e-4,-0.0767 -5.29e-4,-0.11524 -7.94e-4,-0.10255 -0.0026,-0.20535 -0.0067,-0.30902 -0.0021,-0.0523 -0.0053,-0.10502 -0.0083,-0.15761 -0.005,-0.0897 -0.01013,-0.17938 -0.01757,-0.26975 -0.0061,-0.0745 -0.01389,-0.1494 -0.0217,-0.22428 -2.64e-4,-0.004 -5.29e-4,-0.008 -0.0011,-0.0114 -0.007,-0.0669 -0.01331,-0.13337 -0.0217,-0.2005 -0.01307,-0.1047 -0.02913,-0.20997 -0.04547,-0.31523 z"
       style="fill:#451907;fill-opacity:1;stroke:#ffff00;stroke-width:0.26458332;stroke-miterlimit:4;stroke-dasharray:none;stroke-opacity:1" />
    <path
       inkscape:connector-curvature="0"
       id="path15568"
       d="m -9.3357449,87.704007 c -0.262218,0.14908 -0.538314,0.2697 -0.8201061,0.36742 0.2981251,-0.0961 0.5765991,-0.21062 0.8201061,-0.36742 z"
       style="fill:#451907;fill-opacity:1;stroke:#ffff00;stroke-width:0.26458332;stroke-miterlimit:4;stroke-dasharray:none;stroke-opacity:1" />
    <path
       inkscape:connector-curvature="0"
       id="path15566"
       d="m -59.284118,89.910597 c -0.27433,-0.01 -0.536503,0.0972 -0.788067,0.25734 0.343604,-0.15258 0.696852,-0.24476 1.072288,-0.21135 0.0083,7.9e-4 0.01601,0.003 0.02429,0.004 -0.09871,-0.0265 -0.20006,-0.0462 -0.308507,-0.0501 z"
       style="fill:#451907;fill-opacity:1;stroke:#ffff00;stroke-width:0.26458332;stroke-miterlimit:4;stroke-dasharray:none;stroke-opacity:1" />
    <path
       inkscape:connector-curvature="0"
       id="path15562"
       d="m -62.521647,91.307407 c 0.0016,0.0191 0.0033,0.0383 0.0016,0.0579 -0.0016,0.0174 -0.0085,0.0325 -0.01447,0.0481 0.04489,-0.0117 0.09017,-0.0222 0.134877,-0.0346 -0.04297,-0.0247 -0.07752,-0.046 -0.121957,-0.0713 z"
       style="fill:#451907;fill-opacity:1;stroke:#ffff00;stroke-width:0.26458332;stroke-miterlimit:4;stroke-dasharray:none;stroke-opacity:1" />
    <path
       inkscape:connector-curvature="0"
       id="path15560"
       d="m -64.427991,91.731667 c -0.803214,0.0277 -1.79587,0.0712 -2.841686,0.2372 0.939543,-0.10295 1.897115,-0.14179 2.841686,-0.2372 z"
       style="fill:#451907;fill-opacity:1;stroke:#ffff00;stroke-width:0.26458332;stroke-miterlimit:4;stroke-dasharray:none;stroke-opacity:1" />
    <path
       sodipodi:nodetypes="czzzzzzzzzzzzzzzzzzzzzc"
       inkscape:connector-curvature="0"
       id="path26935"
       d="m -52.946033,38.214725 c 0,0 2.00302,1.61865 2.605909,3.393747 0.60289,1.775097 0.22853,4.970596 0,6.969302 -0.228529,1.998706 -1.302029,3.69901 -1.151449,4.969415 0.15058,1.270405 0.25211,1.787626 1.151449,2.302899 0.89934,0.515273 3.19133,-1.408285 3.63616,-0.242409 0.44483,1.165876 -3.08752,1.284507 -3.03014,2.363502 0.0574,1.078995 2.0947,0.463683 2.2423,1.39386 0.1476,0.930177 -1.45133,1.459168 -1.93928,2.302899 -0.48795,0.843731 -0.84843,2.424105 -0.969639,2.666515 -0.12121,0.24241 -2.45884,0.464519 -2.72712,1.151451 -0.26828,0.686935 0.78238,0.776925 0.60602,1.333255 -0.17636,0.55633 -1.74698,0.36854 -1.75747,1.03025 -0.0105,0.66171 1.58686,0.17781 1.63627,1.03024 0.0494,0.85243 -2.84272,0.98412 -2.48471,1.99989 0.35801,1.01577 2.21195,-0.0104 3.27254,0 1.06059,0.0104 2.609749,-0.60588 3.090739,0.0606 0.48099,0.66648 0.79912,0.67532 -0.54543,1.75748 -1.344549,1.08216 -6.932459,1.92804 -8.484359,0.72723 -1.5519,-1.20081 -0.62319,-0.10416 -0.54543,-3.21194 0.0778,-3.10778 2.78524,-10.861743 3.33314,-15.029451 0.5479,-4.167708 0.0419,-6.982842 0.42422,-9.817627 0.38233,-2.834785 1.63628,-7.151108 1.63628,-7.151108 z"
       style="fill:url(#linearGradient27065);fill-opacity:1;stroke:none;stroke-width:0.26458335px;stroke-linecap:butt;stroke-linejoin:miter;stroke-opacity:1;filter:url(#filter27055)" />
    <path
       id="path15598"
       d="m -33.002003,70.320573 -12.308292,1.468128 -8.60516,1.211813 -3.985286,0.09715 -0.499711,1.871204 -6.192388,-0.793234 -5.963459,0.188619 -4.769734,3.500562 c 1.131919,0.89172 -1.586447,2.468848 -1.254705,4.278292 0.333809,1.82072 2.320134,4.06178 3.977535,5.31337 1.6574,1.25159 3.749889,1.40768 5.439978,2.08101 0.693754,0.27639 1.596631,0.49312 2.433961,0.71107 -1.155303,-0.49461 -2.491462,-0.99717 -3.59668,-1.28519 -2.18676,-0.56987 -0.828299,-5.04664 -0.290938,-6.3991 0.53736,-1.35246 0.199593,-0.53612 1.671732,-1.617469 1.472139,-1.081349 5.413381,-3.476067 7.584549,-4.124815 2.171171,-0.648739 3.131566,-0.788035 4.945436,-0.409276 1.813869,0.378759 3.45799,2.168716 5.418791,2.920236 1.9608,0.75152 4.606377,-0.509881 6.262666,1.517219 1.656289,2.027095 1.491593,8.567085 0.342614,9.256285 -0.07569,0.0454 -0.167802,0.0922 -0.270783,0.14004 0.277064,-0.0555 0.440066,-0.0738 0.442349,-0.0346 0.88152,-0.92104 2.673594,-0.66758 3.972886,-1.3255 1.299289,-0.65792 1.807493,-1.46956 3.715533,-2.62671 1.90804,-1.15715 5.248002,-3.47041 7.860504,-4.04162 2.612498,-0.57121 4.919231,0.0816 7.199561,0.31988 2.28033,0.23823 4.090173,1.61928 5.85611,2.2802 1.790404,-0.46542 2.98073,-4.878397 3.9303721,-7.093862 -5.1017851,-1.802895 -5.4445081,-2.155378 -7.4708621,-3.305225 -2.03921,-1.157129 -2.764009,-2.851309 -4.737179,-3.356901 -1.973181,-0.505579 -4.661514,0.879647 -6.373255,0.735356 -1.71174,-0.144321 -2.741057,-0.408764 -3.736205,-1.086775 -0.503714,-0.343191 -0.745355,-0.202401 -0.99994,-0.390157 z"
       style="fill:#000000;fill-opacity:1;stroke:#000000;stroke-width:0.26458332;stroke-miterlimit:4;stroke-dasharray:none;stroke-opacity:1"
       inkscape:connector-curvature="0"
       sodipodi:nodetypes="ccccccccscccssscssscccssccccccccc" />
    <path
       style="fill:none;fill-opacity:1;stroke:none;stroke-width:0.26458332"
       d="m -51.370375,32.518074 c 0,0 5.0253,5.33075 6.36398,5.144904 1.13148,-0.157081 4.726311,-4.660083 4.726311,-4.660083 l 7.63914,18.380205 2.117881,19.920651 -19.785801,2.601299 -8.091591,1.063821 z"
       id="rect8385"
       inkscape:connector-curvature="0"
       sodipodi:nodetypes="cscccccc" />
    <path
       style="fill:url(#linearGradient153967);fill-opacity:1;stroke:none;stroke-width:0.26458332"
       d="m -43.248103,80.07875 c 2.24554,-1.6662 3.940328,0.477171 5.208489,-0.36473 1.268151,-0.84191 -0.279659,-2.25097 1.766599,-3.490209 1.248601,-0.756171 3.909431,-2.656361 7.04259,-3.41525 2.001591,-0.48482 4.09449,0.260549 6.46584,0.156681 0,0 2.30936,-0.911521 2.91397,0.171408 0.60461,1.082932 0.740539,2.168202 -0.0505,3.65492 -0.791051,1.48672 -1.837031,1.582002 -4.409112,3.290112 -2.572078,1.708105 -9.135927,4.926225 -11.228329,6.599605 -2.092399,1.67337 -0.110649,0.57225 -2.00083,1.62634 -1.890188,1.05409 -5.106619,2.90218 -7.422819,0.17022 -2.316199,-2.73196 -0.531431,-6.73289 1.714102,-8.399097 z"
       id="rect42"
       inkscape:connector-curvature="0"
       sodipodi:nodetypes="zzssczzzzzzz" />
    <path
       style="fill:url(#linearGradient864-6);fill-opacity:1;stroke:none;stroke-width:0.26458332"
       d="m -42.219364,90.211777 c 0.881521,-0.92104 2.67339,-0.66742 3.972679,-1.32534 1.29929,-0.65792 1.807321,-1.46987 3.715362,-2.62702 1.90804,-1.15715 5.24828,-3.46996 7.860779,-4.04117 2.612501,-0.57121 4.91917,0.0812 7.1995,0.31947 2.28033,0.23823 4.71007,1.76525 6.46213,1.06837 2.66713,-1.06086 2.249678,-5.699706 3.4680111,-5.937667 0,0 1.9100187,2.406171 1.9202977,3.747597 0.007,0.95935 0.20484,4.20925 -0.7280587,5.44317 -1.286129,1.70112 -3.9019701,1.37178 -4.7256601,2.20797 -1.421162,1.44273 -4.921821,2.11366 -8.252251,3.22302 -3.330429,1.10936 -7.663238,2.38142 -11.256989,3.13342 -3.593751,0.752 -8.44282,2.86064 -10.24182,1.45447 -1.799,-1.40617 -0.443939,-2.20598 -0.344472,-3.3378 0.0995,-1.13182 0.069,-2.40745 0.950492,-3.32849 z"
       id="rect51"
       inkscape:connector-curvature="0"
       sodipodi:nodetypes="zzzzzssssszzzzz" />
    <path
       style="fill:url(#linearGradient872);fill-opacity:1;stroke:none;stroke-width:0.26458332"
       d="m -59.360654,76.82196 c 2.171171,-0.64874 3.131651,-0.78825 4.94552,-0.409488 1.81387,0.378759 3.457829,2.168869 5.41863,2.920389 1.9608,0.75152 4.60634,-0.50986 6.262629,1.51724 1.656292,2.027096 1.4918,8.566936 0.342821,9.256136 -1.14898,0.6892 -5.62319,1.69212 -7.922649,1.94609 -2.299462,0.25397 -4.195561,0.33389 -5.721271,-0.11941 -1.525709,-0.4533 -2.148674,-1.411786 -3.343765,-1.455406 -1.195088,-0.0436 -2.074605,1.513426 -2.869355,0.990286 -0.79475,-0.52314 -3.796476,-1.556504 -5.983236,-2.126374 -2.186759,-0.56987 -1.650063,-3.970306 -1.112703,-5.322766 0.53736,-1.35246 0.15524,-1.64776 1.627379,-2.72911 1.472141,-1.081347 6.184829,-3.818845 8.356,-4.467587 z"
       id="rect39"
       inkscape:connector-curvature="0"
       sodipodi:nodetypes="zzzzzzzzzzzzz" />
    <path
       style="fill:url(#linearGradient153975);fill-opacity:1;stroke:none;stroke-width:0.26458332"
       d="m -62.339444,91.363227 c 1.16128,-0.33226 2.13632,-1.51376 3.33946,-1.40672 1.19191,0.10605 1.844301,1.6869 3.01032,1.95579 4.50668,1.03928 13.75251,-2.00591 13.7703,-1.70052 0,0 -0.818329,2.35517 -0.757721,3.39552 0.0606,1.04034 1.688305,3.602502 1.688305,3.602502 0.029,0.49745 -6.299625,0.487358 -9.591803,0.584788 -2.68709,0.0795 -5.362822,-0.45468 -8.051031,-0.47061 -5.089599,-0.0301 -15.252529,0.71032 -15.252529,0.71032 -0.67505,-0.22006 -0.76434,-1.40017 -0.51802,-2.06609 0.30816,-0.83309 1.293129,-1.07112 2.07197,-1.57305 0.936149,-0.6033 1.72695,-1.41633 2.715419,-1.81988 2.36752,-0.96656 5.11675,-0.50861 7.57533,-1.21205 z"
       id="rect48"
       inkscape:connector-curvature="0"
       sodipodi:nodetypes="sssszssssssss" />
    <rect
       style="fill:none;fill-opacity:1;stroke:none;stroke-width:0.26458332"
       id="rect874"
       width="69.450607"
       height="18.786814"
       x="-79.247574"
       y="67.667603" />
    <path
       sodipodi:nodetypes="zzzzzzzzzz"
       inkscape:connector-curvature="0"
       id="path26927"
       d="m -49.309884,55.547076 c 1.54537,-0.333315 3.79195,-1.674784 5.63605,-1.939284 1.8441,-0.2645 4.20841,0.830775 5.21182,0.242411 1.00341,-0.588364 1.18115,-0.939274 0.78784,-1.575671 -0.39331,-0.636397 -2.48471,0 -2.72712,0 -0.24241,0 -3.75735,-0.181804 -4.90881,-0.121203 -1.15146,0.0606 -3.69677,1.090845 -3.99978,1.212051 -0.30301,0.121206 -2.106369,0.410603 -2.060489,1.151451 0.0459,0.740848 1.393869,0.787834 1.939289,0.787834 0.54543,0 -1.424169,0.575726 0.1212,0.242411 z"
       style="opacity:0.6520004;fill:#483737;stroke:none;stroke-width:0.26458335px;stroke-linecap:butt;stroke-linejoin:miter;stroke-opacity:1;filter:url(#filter27175)" />
    <path
       sodipodi:nodetypes="zzzzzzzzzzz"
       inkscape:connector-curvature="0"
       id="path26929"
       d="m -47.491804,59.304438 c 1.18883,-0.05667 4.36338,-1.151448 4.6664,-1.515065 0.30302,-0.363617 3.28285,-1.200815 4.36339,-1.757477 1.08054,-0.556662 1.7543,-0.997357 2.1817,-1.393859 0.4274,-0.396502 0.8609,-0.234166 0.54542,-0.727231 -0.31548,-0.493065 -1.54473,0.315392 -2.54531,0.545422 -1.00058,0.23003 -2.06627,0.444519 -3.45435,0.848437 -1.38808,0.403918 -3.61832,1.194648 -4.84821,1.636271 -1.22989,0.441623 -2.06182,0.564732 -2.54531,0.969642 -0.48349,0.40491 -0.76224,0.404482 -0.54542,0.90904 0.21682,0.504558 0.99286,0.541493 2.18169,0.48482 z"
       style="opacity:0.77300002;fill:#483737;stroke:none;stroke-width:0.26458335px;stroke-linecap:butt;stroke-linejoin:miter;stroke-opacity:1;filter:url(#filter27187)" />
    <path
       sodipodi:nodetypes="zzzzzzzzzzz"
       inkscape:connector-curvature="0"
       id="path26931"
       d="m -38.462014,66.091931 c -0.7465,-1.219165 -4.98944,-0.0843 -7.0299,-0.18181 -2.04046,-0.0975 -3.90488,-0.0264 -5.211829,-0.36361 -1.30695,-0.337207 -1.94629,-1.221389 -2.60591,-1.212056 -0.65962,0.0093 -0.94881,-0.265596 -0.96964,0.484823 -0.0208,0.750423 1.80353,1.223543 2.96953,1.696873 1.165999,0.47333 2.709289,0.8344 3.999769,1.03025 1.29048,0.19585 2.68591,0.16992 3.69676,0.1818 1.01085,0.0119 1.6158,-0.019 2.3635,-0.0606 0.7477,-0.0416 1.61749,0.16651 2.12109,-0.18181 0.5036,-0.34832 1.41313,-0.17469 0.66663,-1.39386 z"
       style="opacity:0.39800002;fill:#483737;stroke:none;stroke-width:0.26458335px;stroke-linecap:butt;stroke-linejoin:miter;stroke-opacity:1;filter:url(#filter27199)" />
    <path
       sodipodi:nodetypes="zzzzzzzzzzzzzz"
       inkscape:connector-curvature="0"
       id="path26933"
       d="m -36.886344,45.123424 c -1.32719,0.761588 -0.0675,2.87141 -0.48482,3.93917 -0.4173,1.06776 -1.40913,1.405331 -1.69687,2.363502 -0.28774,0.958171 0.33675,2.069195 0.1212,3.090735 -0.21555,1.02154 -1.29969,1.559812 -1.39386,2.848325 -0.0942,1.288513 1.53854,3.046597 1.39386,4.363386 -0.14468,1.316789 -2.19416,1.830743 -1.69687,2.908927 0.49729,1.078182 3.18456,-0.590601 3.69676,0.666629 0.5122,1.257233 -2.97241,2.135163 -2.54531,3.575553 0.4271,1.44039 2.7815,1.50092 4.30278,1.69688 1.52128,0.19596 2.78557,0.83987 4.5452,-0.54543 1.75963,-1.3853 2.98334,-4.28775 3.09073,-8.302559 0.10739,-4.014807 -4.18157,-14.241617 -4.54519,-14.54463 -0.36362,-0.303013 -3.46042,-2.822076 -4.78761,-2.060488 z"
       style="opacity:0.98299997;fill:url(#linearGradient26945);fill-opacity:1;stroke:#000000;stroke-width:0.26458335px;stroke-linecap:butt;stroke-linejoin:miter;stroke-opacity:1;filter:url(#filter27019)" />
    <path
       style="fill:#000000;stroke:none;stroke-width:0.26458332;stroke-miterlimit:4;stroke-dasharray:none;stroke-opacity:1"
       d="m -52.947842,31.28889 c -0.247094,0.185317 -0.524449,0.396042 -0.858345,0.657326 -2.40275,1.880214 -7.426267,3.505769 -10.726706,7.788627 -3.300442,4.282858 -3.220207,13.018937 -5.138706,17.467667 -1.107419,2.567959 -3.412016,3.364484 -4.320667,4.953185 -0.665498,1.163566 -1.166323,4.055597 -1.409732,4.963007 -0.149201,0.55621 -5.73432,3.790294 -6.49211,3.894336 -3.963141,0.544158 -7.012501,1.044096 -7.256923,1.753896 -0.494829,1.436971 -0.863777,0.150188 -1.263489,0.969968 -0.399708,0.81978 -0.26679,3.065373 0.03359,3.878831 0.300379,0.813473 -0.164753,0.491774 0.851628,1.013894 1.016378,0.52214 3.770376,0.153353 5.515424,0.425813 1.180275,0.18428 2.304508,0.772178 3.391525,1.053166 l 3.482991,-1.431954 c 0.466936,-0.534832 0.904377,-1.000419 1.355989,-0.992704 0.143809,0.0024 0.289256,0.05273 0.4377,0.163814 0.0074,0.0055 0.0126,0.01151 0.01963,0.01704 l 4.769733,-3.500562 5.96346,-0.188619 6.192388,0.793234 6.603214,-24.731308 1.17874,-18.496544 z m -8.840517,34.486739 c 0.436591,0.03501 0.771998,1.159336 0.713652,2.390037 -0.0718,1.5147 -2.526083,4.066114 -3.342431,5.742284 -0.33429,0.686401 -2.914036,-0.256831 -2.914036,-0.256831 -0.52704,-0.812811 1.855443,-2.143694 3.185853,-3.774964 1.472049,-1.804929 2.042253,-3.938778 2.042253,-3.938778 0.107937,-0.120052 0.213958,-0.169825 0.314709,-0.161748 z m -25.790674,7.896678 c 0.89934,-1.1e-5 0.878499,0.237016 0.878499,0.899686 0,0.34104 -0.343159,0.09216 -0.65319,0.310576 -0.292381,0.206029 0.08255,0.84646 -0.353984,0.84646 -0.899329,-1e-5 -0.942578,-0.215831 -0.942578,-0.878501 0,-0.66267 0.171913,-1.178221 1.071253,-1.178221 z"
       id="path4643"
       inkscape:connector-curvature="0"
       sodipodi:nodetypes="ccsccscccccscccccccccccccccccccsccsc" />
    <path
       inkscape:connector-curvature="0"
       style="fill:#000000;stroke:none;stroke-width:0.26458332"
       d="m -37.71851,30.481144 c 0.02437,0.0056 0.04842,0.01209 0.07286,0.01654 -0.02437,-0.0044 -0.04857,-0.01103 -0.07286,-0.01654 z m 0.597379,0.105937 c 0.04235,0.01214 0.08433,0.02635 0.124542,0.04496 -0.04039,-0.01857 -0.08199,-0.0329 -0.124542,-0.04496 z m 0.155546,0.06201 c 0.0354,0.01849 0.06964,0.04083 0.102835,0.06666 -0.03322,-0.0258 -0.06741,-0.04824 -0.102835,-0.06666 z m 0.15503,0.110069 c 0.0069,0.0066 0.01392,0.01267 0.02066,0.01963 -0.0067,-0.007 -0.01381,-0.01312 -0.02066,-0.01963 z m 0.107487,0.126608 c -0.05267,0.02819 -0.110014,0.05539 -0.160198,0.08423 -3.66341,2.105623 -4.667067,3.191417 -4.678267,3.855061 -0.01431,0.846974 1.58841,1.006261 1.34307,1.719792 -0.437571,1.272611 -0.399145,0.173299 -0.193786,1.565796 0.205369,1.392494 1.700355,4.082039 2.775024,6.281788 1.074679,2.199746 2.715056,2.908895 3.701066,6.890533 0.986012,3.981641 -1.195494,13.611021 -0.124024,16.789157 1.07147,3.17814 1.04298,1.960589 2.03812,2.638599 0.995148,0.678011 2.024465,0.942454 3.736205,1.086755 1.711741,0.144291 4.400074,-1.240935 6.373255,-0.735356 1.97317,0.505592 2.697969,2.199772 4.737179,3.356901 2.03921,1.157142 2.362885,1.503767 7.5581961,3.336747 0,0 6.6367687,-0.383762 8.95655872,-0.418062 1.1811,-0.01744 2.04303498,-0.451305 2.83238498,-0.300758 0.761019,0.145151 1.457286,0.88178 2.147155,0.506431 1.40543,-0.764669 3.043558,-3.128475 2.345076,-3.975986 -0.698479,-0.847508 -1.222235,0.966309 -1.859833,0.659908 -0.637601,-0.306398 -0.26765,-1.686803 -0.744659,-2.145604 -0.477009,-0.458801 -1.259824,0.01765 -1.626775,-0.494543 -0.366948,-0.512181 1.111184,-0.881873 0.06667,-2.078943 -1.04452,-1.19707 -5.897401,-0.258109 -7.411951,-0.77153 -1.514556,-0.513413 -1.116276,-0.961133 -1.826767,-1.119822 -0.710491,-0.158689 -0.065842,0.898025 -2.2117527,0.244946 -2.1459081,-0.653079 -5.3928251,-2.527247 -8.5819031,-7.248136 -3.189081,-4.720889 -2.984648,-16.43294 -6.934978,-20.850408 -3.95033,-4.417464 -10.127065,-4.197294 -11.715565,-6.201687 -1.582343,-1.996628 -0.09765,-2.019861 -0.539501,-2.675806 z m 29.0607588,50.387109 c 0.0081,0.0478 0.01431,0.0954 0.0217,0.14314 -0.0074,-0.0478 -0.0136,-0.0953 -0.0217,-0.14314 z m 0.06666,0.45268 c 0.0091,0.0728 0.01574,0.14507 0.02326,0.21756 -0.0076,-0.0725 -0.01413,-0.14473 -0.02326,-0.21756 z m 0.04496,0.44184 c 0.0074,0.0903 0.01267,0.18016 0.01757,0.26975 -0.005,-0.0898 -0.01013,-0.17931 -0.01757,-0.26975 z m 0.02585,0.42736 c 0.004,0.10364 0.006,0.2065 0.0067,0.30903 -7.94e-4,-0.10253 -0.0026,-0.20539 -0.0067,-0.30903 z m 0.0072,0.42375 c -5.29e-4,0.10528 -0.0027,0.20978 -0.0067,0.31367 0.0039,-0.10386 0.0063,-0.20841 0.0067,-0.31367 z m -0.01188,0.42633 c -0.0054,0.10757 -0.01201,0.21456 -0.02119,0.32039 0.0091,-0.10591 0.0158,-0.21273 0.02119,-0.32039 z m -0.02842,0.39274 c -0.01117,0.11747 -0.02402,0.23429 -0.03979,0.34933 0.01577,-0.11517 0.02865,-0.23171 0.03979,-0.34933 z"
       id="rect18" />
  </g>
</svg>
