<?xml version="1.0" encoding="UTF-8" standalone="no"?>
<svg
   xmlns:dc="http://purl.org/dc/elements/1.1/"
   xmlns:cc="http://creativecommons.org/ns#"
   xmlns:rdf="http://www.w3.org/1999/02/22-rdf-syntax-ns#"
   xmlns:svg="http://www.w3.org/2000/svg"
   xmlns="http://www.w3.org/2000/svg"
   xmlns:xlink="http://www.w3.org/1999/xlink"
   xmlns:sodipodi="http://sodipodi.sourceforge.net/DTD/sodipodi-0.dtd"
   xmlns:inkscape="http://www.inkscape.org/namespaces/inkscape"
   id="svg160989"
   version="1.1"
   viewBox="0 0 100.51429 80.553148"
   height="80.553146mm"
   width="100.51429mm"
   sodipodi:docname="tlow.svg"
   inkscape:version="0.92.3 (3ce5693, 2018-03-11)">
  <sodipodi:namedview
     pagecolor="#ffffff"
     bordercolor="#666666"
     borderopacity="1"
     objecttolerance="10"
     gridtolerance="10"
     guidetolerance="10"
     inkscape:pageopacity="0"
     inkscape:pageshadow="2"
     inkscape:window-width="1301"
     inkscape:window-height="744"
     id="namedview53"
     showgrid="false"
     fit-margin-top="0"
     fit-margin-left="0"
     fit-margin-right="0"
     fit-margin-bottom="0"
     inkscape:zoom="0.65360273"
     inkscape:cx="62.643794"
     inkscape:cy="200.70325"
     inkscape:window-x="65"
     inkscape:window-y="24"
     inkscape:window-maximized="1"
     inkscape:current-layer="svg160989" />
  <defs
     id="defs160983">
    <linearGradient
       id="linearGradient870">
      <stop
         id="stop866"
         offset="0"
         style="stop-color:#a05a2c;stop-opacity:1;" />
      <stop
         id="stop868"
         offset="1"
         style="stop-color:#552200;stop-opacity:1" />
    </linearGradient>
    <linearGradient
       gradientUnits="userSpaceOnUse"
       y2="126.5078"
       x2="194.37543"
       y1="118.19442"
       x1="190.27492"
       id="linearGradient864"
       xlink:href="#linearGradient870"
       gradientTransform="translate(-158.44844,-2.0665611)" />
    <linearGradient
       gradientTransform="translate(-248.39476,-2.1255821)"
       xlink:href="#linearGradient26943"
       id="linearGradient26945"
       x1="178.02519"
       y1="92.637024"
       x2="186.851"
       y2="92.273407"
       gradientUnits="userSpaceOnUse" />
    <linearGradient
       id="linearGradient26943">
      <stop
         style="stop-color:#c8b7b7;stop-opacity:1"
         offset="0"
         id="stop26939" />
      <stop
         style="stop-color:#000000;stop-opacity:1"
         offset="1"
         id="stop26941" />
    </linearGradient>
    <filter
       style="color-interpolation-filters:sRGB"
       id="filter27019"
       x="-0.1780737"
       width="1.3561474"
       y="-0.090489432"
       height="1.1809789">
      <feGaussianBlur
         stdDeviation="0.97716135"
         id="feGaussianBlur27021" />
    </filter>
    <filter
       style="color-interpolation-filters:sRGB"
       id="filter27199"
       x="-0.077908784"
       width="1.1558176"
       y="-0.36485684"
       height="1.7297137">
      <feGaussianBlur
         stdDeviation="0.52265555"
         id="feGaussianBlur27201" />
    </filter>
    <filter
       style="color-interpolation-filters:sRGB"
       id="filter27187"
       x="-0.10876665"
       width="1.2175333"
       y="-0.27574661"
       height="1.5514932">
      <feGaussianBlur
         stdDeviation="0.63996888"
         id="feGaussianBlur27189" />
    </filter>
    <filter
       style="color-interpolation-filters:sRGB"
       id="filter27175"
       x="-0.17738511"
       width="1.3547702"
       y="-0.67337549"
       height="2.346751">
      <feGaussianBlur
         stdDeviation="1.0266808"
         id="feGaussianBlur27177" />
    </filter>
    <linearGradient
       gradientUnits="userSpaceOnUse"
       y2="133.53934"
       x2="157.88109"
       y1="124.32774"
       x1="153.97563"
       id="linearGradient153975"
       xlink:href="#linearGradient153965"
       gradientTransform="translate(-248.39476,-2.1255821)" />
    <linearGradient
       id="linearGradient153965">
      <stop
         id="stop153961"
         offset="0"
         style="stop-color:#2d0074;stop-opacity:1" />
      <stop
         id="stop153963"
         offset="1"
         style="stop-color:#06000f;stop-opacity:1" />
    </linearGradient>
    <linearGradient
       gradientUnits="userSpaceOnUse"
       y2="123.65937"
       x2="157.42566"
       y1="114.74604"
       x1="159.7381"
       id="linearGradient872"
       xlink:href="#linearGradient870"
       gradientTransform="translate(-248.39476,-2.1255821)" />
    <linearGradient
       gradientUnits="userSpaceOnUse"
       y2="126.5078"
       x2="194.37543"
       y1="118.19442"
       x1="190.27492"
       id="linearGradient864-7"
       xlink:href="#linearGradient870"
       gradientTransform="translate(-248.39476,-2.1255821)" />
    <linearGradient
       gradientUnits="userSpaceOnUse"
       y2="116.92193"
       x2="188.62166"
       y1="109.16479"
       x1="185.18259"
       id="linearGradient153967"
       xlink:href="#linearGradient153965"
       gradientTransform="translate(-248.39476,-2.1255821)" />
    <linearGradient
       gradientTransform="translate(-248.39476,-2.1255821)"
       xlink:href="#linearGradient27063"
       id="linearGradient27065"
       x1="159.76387"
       y1="91.538589"
       x2="168.39485"
       y2="91.902206"
       gradientUnits="userSpaceOnUse" />
    <linearGradient
       id="linearGradient27063">
      <stop
         style="stop-color:#000000;stop-opacity:1"
         offset="0"
         id="stop27059" />
      <stop
         style="stop-color:#c8b7b7;stop-opacity:1"
         offset="1"
         id="stop27061" />
    </linearGradient>
    <filter
       style="color-interpolation-filters:sRGB"
       id="filter27055"
       x="-0.17661844"
       width="1.3532369"
       y="-0.059309874"
       height="1.1186197">
      <feGaussianBlur
         stdDeviation="0.88461893"
         id="feGaussianBlur27057" />
    </filter>
  </defs>
  <metadata
     id="metadata160986">
    <rdf:RDF>
      <cc:Work
         rdf:about="">
        <dc:format>image/svg+xml</dc:format>
        <dc:type
           rdf:resource="http://purl.org/dc/dcmitype/StillImage" />
        <dc:title></dc:title>
      </cc:Work>
    </rdf:RDF>
  </metadata>
  <g
     transform="translate(124.02475,-59.122116)"
     id="layer1">
    <path
       style="fill:#c8b7b7;stroke:#000000;stroke-width:0.26458332px;stroke-linecap:butt;stroke-linejoin:miter;stroke-opacity:1"
       d="m -83.55562,68.121016 5.939049,3.643293 5.433441,-1.395647 3.535749,-1.762827 4.6058,8.605573 1.696871,19.029225 -1.09084,6.302677 -13.211371,1.57567 -8.605581,1.21204 -4.969409,0.12122 0.96964,-11.756918 3.393752,-18.301993 z"
       id="path26937"
       inkscape:connector-curvature="0" />
    <path
       style="opacity:0.98299997;fill:url(#linearGradient26945);fill-opacity:1;stroke:#000000;stroke-width:0.26458335px;stroke-linecap:butt;stroke-linejoin:miter;stroke-opacity:1;filter:url(#filter27019)"
       d="m -68.22316,77.453819 c -1.32719,0.761588 -0.0675,2.87141 -0.48482,3.93917 -0.4173,1.06776 -1.40913,1.405331 -1.69687,2.363502 -0.28774,0.958171 0.33675,2.069195 0.1212,3.090735 -0.21555,1.02154 -1.29969,1.559812 -1.39386,2.848325 -0.0942,1.288513 1.53854,3.046597 1.39386,4.363386 -0.14468,1.316789 -2.19416,1.830743 -1.69687,2.908927 0.49729,1.078182 3.18456,-0.590601 3.69676,0.666629 0.5122,1.257233 -2.97241,2.135163 -2.54531,3.575557 0.4271,1.44039 2.7815,1.50092 4.30278,1.69688 1.52128,0.19596 2.78557,0.83987 4.5452,-0.54543 1.75963,-1.3853 2.98334,-4.287754 3.09073,-8.302563 0.107389,-4.014807 -4.18157,-14.241617 -4.54519,-14.54463 -0.36362,-0.303013 -3.46042,-2.822076 -4.78761,-2.060488 z"
       id="path26933"
       inkscape:connector-curvature="0" />
    <path
       style="fill:#451907;fill-opacity:1;stroke:#ffff00;stroke-width:0.26458332;stroke-miterlimit:4;stroke-dasharray:none;stroke-opacity:1"
       d="m -40.73044,110.19469 c 0.299688,0.3922 1.286169,1.73089 1.647444,2.87993 -0.423386,-1.906 -1.261919,-2.63694 -1.647444,-2.87993 z"
       id="path15584"
       inkscape:connector-curvature="0" />
    <path
       style="fill:#451907;fill-opacity:1;stroke:#ffff00;stroke-width:0.26458332;stroke-miterlimit:4;stroke-dasharray:none;stroke-opacity:1"
       d="m -38.957422,113.74641 c 0.0044,0.61105 0.08504,2.15054 -0.09715,3.50728 0.05662,-0.23914 0.105412,-0.4836 0.140044,-0.73639 0.01577,-0.11517 0.02865,-0.2317 0.03979,-0.34933 0.0024,-0.0242 0.0051,-0.0481 0.0072,-0.0724 1.93e-4,-0.002 2.64e-4,-0.004 5.29e-4,-0.007 0.0089,-0.10371 0.0154,-0.20829 0.02066,-0.31367 0.0019,-0.0375 0.0038,-0.075 0.0052,-0.11266 0.0039,-0.10375 0.0063,-0.20801 0.0067,-0.31316 1.57e-4,-0.0383 -2.09e-4,-0.0767 -5.29e-4,-0.11524 -7.93e-4,-0.10255 -0.0026,-0.20535 -0.0067,-0.30902 -0.0021,-0.0523 -0.0053,-0.10502 -0.0083,-0.15761 -0.005,-0.0897 -0.01013,-0.17938 -0.01757,-0.26975 -0.0061,-0.0745 -0.01389,-0.1494 -0.0217,-0.22428 -2.65e-4,-0.004 -5.29e-4,-0.008 -0.0011,-0.0114 -0.007,-0.0669 -0.01331,-0.13337 -0.0217,-0.2005 -0.01307,-0.1047 -0.02913,-0.20997 -0.04547,-0.31523 z"
       id="path15570"
       inkscape:connector-curvature="0" />
    <path
       style="fill:#451907;fill-opacity:1;stroke:#ffff00;stroke-width:0.26458332;stroke-miterlimit:4;stroke-dasharray:none;stroke-opacity:1"
       d="m -40.672562,120.0344 c -0.262218,0.14908 -0.538314,0.2697 -0.820105,0.36742 0.298124,-0.0961 0.576598,-0.21062 0.820105,-0.36742 z"
       id="path15568"
       inkscape:connector-curvature="0" />
    <path
       style="fill:url(#linearGradient27065);fill-opacity:1;stroke:none;stroke-width:0.26458335px;stroke-linecap:butt;stroke-linejoin:miter;stroke-opacity:1;filter:url(#filter27055)"
       d="m -84.28285,70.545121 c 0,0 2.00302,1.618649 2.60591,3.393746 0.60289,1.775097 0.22853,4.970596 0,6.969302 -0.22853,1.998706 -1.30203,3.69901 -1.15145,4.969415 0.15058,1.270405 0.25211,1.787626 1.15145,2.302899 0.89934,0.515273 3.19133,-1.408285 3.63616,-0.242409 0.44483,1.165876 -3.08752,1.284507 -3.03014,2.363502 0.0574,1.078995 2.0947,0.463683 2.2423,1.39386 0.1476,0.930177 -1.45133,1.459168 -1.93928,2.302899 -0.48795,0.843731 -0.84843,2.424105 -0.96964,2.666515 -0.12121,0.24241 -2.45884,0.464519 -2.72712,1.151451 -0.26828,0.686935 0.78238,0.776925 0.60602,1.333255 -0.17636,0.55633 -1.74698,0.36854 -1.75747,1.030254 -0.0105,0.66171 1.58686,0.17781 1.63627,1.03024 0.0494,0.85243 -2.84272,0.98412 -2.48471,1.99989 0.35801,1.01577 2.21195,-0.0104 3.27254,0 1.06059,0.0104 2.60975,-0.60588 3.09074,0.0606 0.48099,0.66648 0.79912,0.67532 -0.54543,1.75748 -1.34455,1.08216 -6.93246,1.92804 -8.48436,0.72723 -1.5519,-1.20081 -0.62319,-0.10416 -0.54543,-3.21194 0.0778,-3.107784 2.78524,-10.861747 3.33314,-15.029455 0.5479,-4.167708 0.0419,-6.982842 0.42422,-9.817627 0.38233,-2.834785 1.63628,-7.151107 1.63628,-7.151107 z"
       id="path26935"
       inkscape:connector-curvature="0" />
    <path
       style="fill:#000000;fill-opacity:1;stroke:#000000;stroke-width:0.26458332;stroke-miterlimit:4;stroke-dasharray:none;stroke-opacity:1"
       d="m -64.338819,102.65097 -12.308292,1.46813 -8.605161,1.21181 -3.985286,0.0971 -0.499711,1.8712 -6.192388,-0.79323 -5.963463,0.18862 -4.76973,3.50056 c 1.13192,0.89172 -1.58645,2.46885 -1.2547,4.27829 0.3338,1.82072 2.32013,4.06178 3.97753,5.31337 1.6574,1.25159 4.411348,1.1242 6.101437,1.79753 0.693753,0.27639 1.029666,0.30413 1.866996,0.52208 -1.155303,-0.49461 -2.396968,-0.80818 -3.502186,-1.0962 -2.186757,-0.56987 -0.917057,-4.59612 -0.3797,-5.94858 0.537361,-1.35246 0.09937,-0.66975 1.571507,-1.7511 1.472139,-1.08135 5.41338,-3.50947 7.584548,-4.15822 2.171171,-0.64874 3.131566,-0.78804 4.945436,-0.40928 1.813869,0.37876 3.45799,2.16872 5.418791,2.92024 1.960801,0.75152 4.606377,-0.50988 6.262666,1.51722 1.656289,2.02709 1.491594,8.56708 0.342615,9.25628 -0.07569,0.0454 -0.167802,0.0922 -0.270783,0.14004 0.277064,-0.0555 0.440066,-0.0738 0.442349,-0.0346 0.88152,-0.92104 2.673593,-0.66758 3.972885,-1.3255 1.29929,-0.65792 1.807494,-1.46956 3.715534,-2.62671 1.90804,-1.15715 5.248002,-3.47041 7.860503,-4.04162 2.612499,-0.57121 4.919231,0.0816 7.199561,0.31988 2.28033,0.23823 4.318222,1.54116 6.08416,2.20208 1.790404,-0.46542 2.75268,-4.80028 3.702323,-7.01574 -5.101786,-1.8029 -5.444509,-2.15538 -7.470863,-3.30523 -2.039209,-1.15712 -2.764009,-2.8513 -4.737179,-3.3569 -1.97318,-0.50558 -4.661514,0.87965 -6.373254,0.73536 -1.71174,-0.14432 -2.741057,-0.40876 -3.736205,-1.08678 -0.503714,-0.34319 -0.745355,-0.2024 -0.99994,-0.39015 z"
       id="path15598"
       inkscape:connector-curvature="0" />
    <path
       id="rect8385"
       d="m -82.707192,64.848469 c 0,0 5.025301,5.33075 6.363981,5.144904 1.13148,-0.157081 4.72631,-4.660083 4.72631,-4.660083 l 7.63914,18.380205 2.117882,19.920655 -19.785802,2.60129 -8.09159,1.06383 z"
       style="fill:none;fill-opacity:1;stroke:none;stroke-width:0.26458332"
       inkscape:connector-curvature="0" />
    <path
       id="rect42"
       d="m -74.58492,112.40914 c 2.24554,-1.6662 3.940329,0.47718 5.20849,-0.36473 1.268151,-0.84191 -0.279659,-2.25097 1.766599,-3.4902 1.248601,-0.75618 3.909431,-2.65637 7.042589,-3.41525 2.001592,-0.48482 4.094491,0.26054 6.46584,0.15668 0,0 2.30936,-0.91152 2.91397,0.1714 0.60461,1.08294 0.74054,2.16821 -0.0505,3.65492 -0.791052,1.48672 -1.837032,1.58201 -4.409112,3.29012 -2.572078,1.7081 -9.135928,4.92622 -11.228329,6.5996 -2.092399,1.67337 -0.110649,0.57225 -2.00083,1.62634 -1.890188,1.05409 -5.10662,2.90218 -7.422819,0.17022 -2.3162,-2.73196 -0.531432,-6.73289 1.7141,-8.3991 z"
       style="fill:url(#linearGradient153967);fill-opacity:1;stroke:none;stroke-width:0.26458332"
       inkscape:connector-curvature="0" />
    <path
       id="rect51"
       d="m -73.55618,122.54217 c 0.88152,-0.92104 2.67339,-0.66741 3.972679,-1.32534 1.299289,-0.65792 1.807321,-1.46987 3.715361,-2.62702 1.90804,-1.15715 5.248281,-3.46996 7.860779,-4.04117 2.612501,-0.57121 4.91917,0.0812 7.1995,0.31947 2.28033,0.23823 4.71007,1.76525 6.462131,1.06837 2.667129,-1.06086 2.249678,-5.6997 3.46801,-5.93767 0,0 1.910019,2.40618 1.920298,3.7476 0.007,0.95935 0.204841,4.20925 -0.728059,5.44317 -1.286129,1.70112 -3.901969,1.37178 -4.72566,2.20797 -1.421161,1.44273 -4.921821,2.11366 -8.252251,3.22302 -3.330429,1.10936 -7.663238,2.38142 -11.256988,3.13342 -3.593751,0.752 -8.44282,2.86064 -10.24182,1.45447 -1.799,-1.40617 -0.443939,-2.20598 -0.344472,-3.3378 0.0995,-1.13182 0.069,-2.40745 0.950492,-3.32849 z"
       style="fill:url(#linearGradient864-7);fill-opacity:1;stroke:none;stroke-width:0.26458332"
       inkscape:connector-curvature="0" />
    <path
       id="rect39"
       d="m -90.697471,109.15235 c 2.171171,-0.64874 3.131651,-0.78825 4.945521,-0.40948 1.813869,0.37876 3.457829,2.16887 5.418629,2.92039 1.960801,0.75152 4.606341,-0.50986 6.26263,1.51724 1.656291,2.02709 1.4918,8.56693 0.34282,9.25613 -1.148979,0.6892 -5.623189,1.69212 -7.922649,1.94609 -2.299462,0.25397 -4.195561,0.33389 -5.72127,-0.11941 -1.52571,-0.4533 -2.020771,-1.67807 -3.215863,-1.72169 -1.195088,-0.0436 -2.202508,1.77971 -2.997258,1.25657 -0.79475,-0.52314 -3.890969,-1.93448 -6.077729,-2.50435 -2.18676,-0.56987 -1.55557,-3.59233 -1.01821,-4.94479 0.53736,-1.35246 0.92659,-1.99058 2.39873,-3.07192 1.47214,-1.08136 5.413479,-3.47603 7.584649,-4.12478 z"
       style="fill:url(#linearGradient872);fill-opacity:1;stroke:none;stroke-width:0.26458332"
       inkscape:connector-curvature="0" />
    <path
       id="rect48"
       d="m -93.676261,123.69362 c 1.16128,-0.33226 2.13632,-1.51376 3.33946,-1.40672 1.191911,0.10605 1.844302,1.6869 3.01032,1.95579 4.50668,1.03928 13.75251,-2.00591 13.770301,-1.70052 0,0 -0.81833,2.35517 -0.757722,3.39552 0.0606,1.04034 1.878873,3.66469 1.878873,3.66469 0.029,0.49745 -6.490192,0.42517 -9.782371,0.5226 -2.68709,0.0795 -5.362821,-0.45468 -8.05103,-0.47061 -5.089599,-0.0301 -15.25253,0.71032 -15.25253,0.71032 -0.67505,-0.22006 -0.76434,-1.40017 -0.51802,-2.06609 0.30816,-0.83309 1.29313,-1.07112 2.07197,-1.57305 0.93615,-0.6033 1.72695,-1.41633 2.71542,-1.81988 2.36752,-0.96656 5.11675,-0.50861 7.575329,-1.21205 z"
       style="fill:url(#linearGradient153975);fill-opacity:1;stroke:none;stroke-width:0.26458332"
       inkscape:connector-curvature="0" />
    <rect
       y="99.998001"
       x="-110.58439"
       height="18.786814"
       width="69.450607"
       id="rect874"
       style="fill:none;fill-opacity:1;stroke:none;stroke-width:0.26458332" />
    <path
       style="opacity:0.6520004;fill:#483737;stroke:none;stroke-width:0.26458335px;stroke-linecap:butt;stroke-linejoin:miter;stroke-opacity:1;filter:url(#filter27175)"
       d="m -80.6467,87.877471 c 1.54537,-0.333315 3.79195,-1.674784 5.63605,-1.939284 1.8441,-0.2645 4.20841,0.830775 5.21182,0.242411 1.00341,-0.588364 1.18115,-0.939274 0.78784,-1.575671 -0.39331,-0.636397 -2.48471,0 -2.72712,0 -0.24241,0 -3.75735,-0.181804 -4.90881,-0.121203 -1.15146,0.0606 -3.69677,1.090845 -3.99978,1.212051 -0.30301,0.121206 -2.10637,0.410603 -2.06049,1.151451 0.0459,0.740848 1.39387,0.787834 1.93929,0.787834 0.54543,0 -1.42417,0.575726 0.1212,0.242411 z"
       id="path26927"
       inkscape:connector-curvature="0" />
    <path
       style="opacity:0.77300002;fill:#483737;stroke:none;stroke-width:0.26458335px;stroke-linecap:butt;stroke-linejoin:miter;stroke-opacity:1;filter:url(#filter27187)"
       d="m -78.82862,91.634833 c 1.18883,-0.05667 4.36338,-1.151448 4.6664,-1.515065 0.30302,-0.363617 3.28285,-1.200815 4.36339,-1.757477 1.08054,-0.556662 1.7543,-0.997357 2.1817,-1.393859 0.4274,-0.396502 0.8609,-0.234166 0.54542,-0.727231 -0.31548,-0.493065 -1.54473,0.315392 -2.54531,0.545422 -1.00058,0.23003 -2.06627,0.444519 -3.45435,0.848437 -1.38808,0.403918 -3.61832,1.194648 -4.84821,1.636271 -1.22989,0.441623 -2.06182,0.564732 -2.54531,0.969642 -0.48349,0.40491 -0.76224,0.404482 -0.54542,0.90904 0.21682,0.504558 0.99286,0.541493 2.18169,0.48482 z"
       id="path26929"
       inkscape:connector-curvature="0" />
    <path
       style="opacity:0.39800002;fill:#483737;stroke:none;stroke-width:0.26458335px;stroke-linecap:butt;stroke-linejoin:miter;stroke-opacity:1;filter:url(#filter27199)"
       d="m -69.79883,98.422326 c -0.7465,-1.219165 -4.98944,-0.0843 -7.0299,-0.18181 -2.04046,-0.0975 -3.90488,-0.0264 -5.21183,-0.36361 -1.30695,-0.337207 -1.94629,-1.221389 -2.60591,-1.212056 -0.65962,0.0093 -0.94881,-0.265596 -0.96964,0.484823 -0.0208,0.750423 1.80353,1.223543 2.96953,1.696873 1.166,0.47333 2.70929,0.8344 3.99977,1.03025 1.29048,0.195854 2.68591,0.169924 3.69676,0.181804 1.01085,0.0119 1.6158,-0.019 2.3635,-0.0606 0.7477,-0.0416 1.61749,0.16651 2.12109,-0.18181 0.5036,-0.34832 1.41313,-0.17469 0.66663,-1.39386 z"
       id="path26931"
       inkscape:connector-curvature="0" />
    <path
       id="rect18"
       d="m -69.055326,62.811539 c 0.02437,0.0056 0.04842,0.01209 0.07286,0.01654 -0.02437,-0.0044 -0.04857,-0.01103 -0.07286,-0.01654 z m 0.597378,0.105937 c 0.04235,0.01214 0.08433,0.02635 0.124543,0.04496 -0.04039,-0.01857 -0.08199,-0.0329 -0.124543,-0.04496 z m 0.155546,0.06201 c 0.0354,0.01849 0.06964,0.04083 0.102836,0.06666 -0.03322,-0.0258 -0.06741,-0.04824 -0.102836,-0.06666 z m 0.15503,0.110069 c 0.0069,0.0066 0.01392,0.01267 0.02066,0.01963 -0.0067,-0.007 -0.01381,-0.01312 -0.02066,-0.01963 z m 0.107487,0.126608 c -0.05267,0.02819 -0.110013,0.05539 -0.160197,0.08423 -3.66341,2.105623 -4.667067,3.191418 -4.678267,3.855061 -0.01431,0.846974 1.58841,1.006261 1.34307,1.719792 -0.437571,1.272611 -0.399145,0.173299 -0.193786,1.565796 0.205369,1.392494 1.700355,4.082039 2.775024,6.281788 1.074679,2.199746 2.715056,2.908895 3.701066,6.890533 0.986012,3.981641 -1.195494,13.611021 -0.124024,16.789157 1.07147,3.17814 1.04298,1.96059 2.03812,2.6386 0.995148,0.67801 2.024465,0.94245 3.736205,1.08675 1.71174,0.14429 4.400074,-1.24093 6.373254,-0.73535 1.97317,0.50559 2.69797,2.19977 4.737179,3.3569 2.03921,1.15714 2.362886,1.50377 7.558196,3.33675 0,0 6.636769,-0.38377 8.956559,-0.41807 1.1811,-0.0174 2.043036,-0.4513 2.832386,-0.30075 0.761018,0.14515 1.457285,0.88178 2.147154,0.50643 1.40543,-0.76467 3.043558,-3.12848 2.345076,-3.97599 -0.698478,-0.84751 -1.222234,0.96631 -1.859832,0.65991 -0.637601,-0.3064 -0.26765,-1.6868 -0.74466,-2.14561 -0.477009,-0.4588 -1.259824,0.0176 -1.626774,-0.49454 -0.366948,-0.51218 1.111183,-0.88187 0.06666,-2.07894 -1.044519,-1.19707 -5.897401,-0.25811 -7.41195,-0.77153 -1.514548,-0.51341 -1.116268,-0.96113 -1.826759,-1.119823 -0.710491,-0.158689 -0.06584,0.898023 -2.211753,0.244943 -2.145908,-0.653076 -5.392824,-2.527244 -8.581903,-7.248133 -3.189081,-4.720889 -2.984648,-16.43294 -6.934978,-20.850407 -3.950329,-4.417465 -10.127064,-4.197295 -11.715564,-6.201688 -1.582344,-1.996628 -0.09765,-2.019861 -0.539502,-2.675806 z m 29.060759,50.387107 c 0.0081,0.0478 0.01431,0.0954 0.0217,0.14314 -0.0074,-0.0478 -0.0136,-0.0953 -0.0217,-0.14314 z m 0.06666,0.45269 c 0.0091,0.0728 0.01574,0.14506 0.02326,0.21755 -0.0076,-0.0725 -0.01413,-0.14473 -0.02326,-0.21755 z m 0.04496,0.44183 c 0.0074,0.0903 0.01267,0.18016 0.01757,0.26975 -0.005,-0.0898 -0.01013,-0.17931 -0.01757,-0.26975 z m 0.02585,0.42736 c 0.004,0.10364 0.006,0.2065 0.0067,0.30903 -7.93e-4,-0.10253 -0.0026,-0.20539 -0.0067,-0.30903 z m 0.0072,0.42375 c -5.29e-4,0.10528 -0.0027,0.20978 -0.0067,0.31367 0.0039,-0.10386 0.0063,-0.20841 0.0067,-0.31367 z m -0.01188,0.42633 c -0.0054,0.10757 -0.01201,0.21456 -0.02119,0.32039 0.0091,-0.10591 0.0158,-0.21273 0.02119,-0.32039 z m -0.02842,0.39274 c -0.01117,0.11747 -0.02402,0.23429 -0.03979,0.34933 0.01577,-0.11517 0.02865,-0.23171 0.03979,-0.34933 z"
       style="fill:#000000;stroke:none;stroke-width:0.26458332"
       inkscape:connector-curvature="0" />
    <path
       id="path4643"
       d="m -82.830196,64.043505 c -0.247095,0.185317 -0.524449,0.396042 -0.858346,0.657326 -2.40275,1.880214 -8.880729,3.081549 -12.181168,7.364407 -3.300442,4.282858 -3.220207,13.018937 -5.13871,17.467667 -1.10742,2.567959 -3.41201,3.364484 -4.32066,4.953185 -0.6655,1.163567 -1.16633,4.055597 -1.40973,4.963007 -0.14921,0.556213 -5.73432,3.790293 -6.49211,3.894333 -3.96314,0.54416 -7.0125,1.0441 -7.25692,1.7539 -0.49483,1.43697 -0.86378,0.15019 -1.26349,0.96997 -0.39971,0.81978 -0.26679,3.06537 0.0336,3.87883 0.30038,0.81347 -0.16475,0.49177 0.85163,1.01389 1.01637,0.52214 3.77037,0.15335 5.51542,0.42581 1.18028,0.18428 2.30451,0.77218 3.39152,1.05317 l 3.48299,-1.43195 c 0.46694,-0.53484 0.90438,-1.00042 1.35599,-0.99271 0.14381,0.002 0.28926,0.0527 0.4377,0.16382 0.007,0.005 0.0126,0.0115 0.0196,0.017 l 4.76974,-3.50056 5.963455,-0.18862 6.192388,0.79323 6.603214,-24.731307 1.17874,-18.496544 z m -10.29498,34.062519 c 0.436591,0.03501 0.771998,1.159336 0.713653,2.390036 -0.0718,1.5147 -2.526083,4.06611 -3.342432,5.74228 -0.33429,0.68641 -2.914036,-0.25683 -2.914036,-0.25683 -0.527039,-0.81281 1.855444,-2.14369 3.185854,-3.77496 1.472049,-1.80493 2.042252,-3.938778 2.042252,-3.938778 0.107937,-0.120052 0.213958,-0.169825 0.314709,-0.161748 z m -25.790674,7.896676 c 0.89934,-1e-5 0.8785,0.23702 0.8785,0.89969 0,0.34104 -0.34316,0.0922 -0.65319,0.31057 -0.29238,0.20603 0.0825,0.84646 -0.35398,0.84646 -0.89933,-1e-5 -0.94258,-0.21583 -0.94258,-0.8785 0,-0.66267 0.17191,-1.17822 1.07125,-1.17822 z"
       style="fill:#000000;stroke:none;stroke-width:0.26458332;stroke-miterlimit:4;stroke-dasharray:none;stroke-opacity:1"
       inkscape:connector-curvature="0" />
  </g>
  <g
     transform="translate(-32.75081,143.72396)"
     id="layer1-3"
     inkscape:label="Layer 1" />
</svg>
